<svg xmlns="http://www.w3.org/2000/svg" viewBox="0 0 162.13 30.34"><defs><style>.cls-1{opacity:0.5;}.cls-2{fill:#fff;}</style></defs><g id="Layer_2" data-name="Layer 2"><g id="Layer_1-2" data-name="Layer 1"><g class="cls-1"><path class="cls-2" d="M34.87,1.77h1.62c.26,0,.4.06.42.17a1.09,1.09,0,0,1-.09.51,2.4,2.4,0,0,0,0,.4v9.52h-1.9Z"/><path class="cls-2" d="M45,12.37h-1.9l-3-7.25v7.25H38.28V1.77h2.23L43.2,8.43V1.77h1.56c.26,0,.4.06.42.17a1.09,1.09,0,0,1-.09.51,1.66,1.66,0,0,0-.05.4Z"/><path class="cls-2" d="M51,10V8.39h1.9V10A2.25,2.25,0,0,1,52,11.82a3.66,3.66,0,0,1-2.4.73,3.76,3.76,0,0,1-2.44-.73A2.22,2.22,0,0,1,46.31,10V4.16a2.24,2.24,0,0,1,.88-1.81,4.28,4.28,0,0,1,4.81,0,2.22,2.22,0,0,1,.91,1.78V5.57H51V4.15a.76.76,0,0,0-.34-.62,1.7,1.7,0,0,0-1-.27,1.73,1.73,0,0,0-1,.28.77.77,0,0,0-.4.61V10a.78.78,0,0,0,.4.62,1.67,1.67,0,0,0,1,.3,1.62,1.62,0,0,0,1-.29A.77.77,0,0,0,51,10Z"/><path class="cls-2" d="M54.16,1.77h1.62c.25,0,.39.06.41.17a1.09,1.09,0,0,1-.09.51,2.4,2.4,0,0,0-.05.4V6.16h2.76V1.77h1.62c.26,0,.4.06.42.17a1.09,1.09,0,0,1-.09.51,2.4,2.4,0,0,0,0,.4v9.52h-1.9V7.81H56.05v4.56H54.16Z"/><path class="cls-2" d="M62.22,1.77h1.62c.26,0,.4.06.42.17a1.09,1.09,0,0,1-.09.51,1.66,1.66,0,0,0,0,.4v9.52h-1.9Z"/><path class="cls-2" d="M71.35,12.37H65.63V1.77h5.7V3.41H67.52V5.73h3.69V7.37H67.52v3.35h3.83Z"/><path class="cls-2" d="M72.42,10V4.19a2.35,2.35,0,0,1,.86-1.83,4.25,4.25,0,0,1,4.82,0A2.33,2.33,0,0,1,79,4.19V10a2.33,2.33,0,0,1-.87,1.83,4.25,4.25,0,0,1-4.82,0A2.35,2.35,0,0,1,72.42,10Zm4.66,0V4.22a.83.83,0,0,0-.38-.68,1.64,1.64,0,0,0-1-.28,1.62,1.62,0,0,0-1,.28.84.84,0,0,0-.36.68V9.94a.87.87,0,0,0,.36.7,1.62,1.62,0,0,0,1,.29,1.64,1.64,0,0,0,1-.29A.87.87,0,0,0,77.08,9.94Z"/><path class="cls-2" d="M87,12.37h-1.9l-3-7.25v7.25H80.22V1.77h2.23l2.69,6.66V1.77H86.7c.26,0,.4.06.42.17a1.23,1.23,0,0,1-.09.51,1.66,1.66,0,0,0,0,.4Z"/><path class="cls-2" d="M94.94,12.37H93.05V1.77h3.19a3.91,3.91,0,0,1,2.54.71,2.27,2.27,0,0,1,.84,1.8V5.87a2.49,2.49,0,0,1-.83,1.94,3.62,3.62,0,0,1-2.52.76H94.94ZM97.75,5.9V4.36a.82.82,0,0,0-.34-.66,1.89,1.89,0,0,0-1.17-.29h-1.3V6.93h1.33a1.7,1.7,0,0,0,1.12-.31A.94.94,0,0,0,97.75,5.9Z"/><path class="cls-2" d="M106.48,12.37h-5.73V1.77h5.7V3.41h-3.8V5.73h3.68V7.37h-3.68v3.35h3.83Z"/><path class="cls-2" d="M114.3,12.37h-1.89l-3-7.25v7.25h-1.84V1.77h2.24l2.68,6.66V1.77H114c.26,0,.4.06.42.17a1.09,1.09,0,0,1-.09.51,2.4,2.4,0,0,0,0,.4Z"/><path class="cls-2" d="M121.93,1.77V3.41h-2.37v9h-1.9v-9h-2.39V1.77Z"/><path class="cls-2" d="M126.49,1.77l3,10.6h-1.92l-.64-2.4H124l-.65,2.4h-1.91l3-10.6Zm-1,2.76-1,3.79h2Z"/><path class="cls-2" d="M132.16,12.37h-1.9V1.77h3.19a3.89,3.89,0,0,1,2.54.71,2.28,2.28,0,0,1,.85,1.8V5.87A2.5,2.5,0,0,1,136,7.81a3.62,3.62,0,0,1-2.52.76h-1.32ZM135,5.9V4.36a.82.82,0,0,0-.34-.66,1.87,1.87,0,0,0-1.17-.29h-1.29V6.93h1.32a1.7,1.7,0,0,0,1.12-.31A.94.94,0,0,0,135,5.9Z"/><path class="cls-2" d="M137.81,10V4.19a2.35,2.35,0,0,1,.86-1.83,3.52,3.52,0,0,1,2.4-.75,3.59,3.59,0,0,1,2.42.75,2.33,2.33,0,0,1,.87,1.83V10a2.33,2.33,0,0,1-.87,1.83,3.59,3.59,0,0,1-2.42.75,3.52,3.52,0,0,1-2.4-.75A2.35,2.35,0,0,1,137.81,10Zm4.65,0V4.22a.82.82,0,0,0-.37-.68,1.65,1.65,0,0,0-1-.28,1.58,1.58,0,0,0-1,.28.85.85,0,0,0-.37.68V9.94a.88.88,0,0,0,.37.7,1.59,1.59,0,0,0,1,.29,1.65,1.65,0,0,0,1-.29A.86.86,0,0,0,142.46,9.94Z"/><path class="cls-2" d="M147.51,12.37h-1.9V1.77h3.19a3.91,3.91,0,0,1,2.54.71,2.28,2.28,0,0,1,.85,1.8V5.43a2.87,2.87,0,0,1-.35,1.39,2.54,2.54,0,0,1-1.05,1l1.73,4.55h-1.91l-1.56-4.12h-1.54Zm2.8-6.92V4.36A.8.8,0,0,0,150,3.7a1.82,1.82,0,0,0-1.16-.29h-1.29v3.2h1.32a1.54,1.54,0,0,0,1.11-.36A1.09,1.09,0,0,0,150.31,5.45Z"/><path class="cls-2" d="M159.64,1.77V3.41h-2.38v9h-1.9v-9H153V1.77Z"/><path class="cls-2" d="M40.74,16.17h2c.26,0,.39.06.41.17a1.09,1.09,0,0,1-.09.51,2.23,2.23,0,0,0,0,.4v9.52H41.21V21l-1.64,5.8H38.13l-1.66-5.85v5.85H34.63V16.17H37l1.9,7.46Z"/><path class="cls-2" d="M46.21,17.25v7a1,1,0,0,0,.32.75,1.23,1.23,0,0,0,.93.33A1.27,1.27,0,0,0,48.4,25a1,1,0,0,0,.33-.75V16.17h1.62c.26,0,.4.06.42.17a1.09,1.09,0,0,1-.09.51,2.4,2.4,0,0,0,0,.4v7.12a2.36,2.36,0,0,1-.82,1.83,4,4,0,0,1-4.69,0,2.41,2.41,0,0,1-.8-1.83v-8.2h1.62c.25,0,.39.06.41.17a1.09,1.09,0,0,1-.09.51A2.4,2.4,0,0,0,46.21,17.25Z"/><path class="cls-2" d="M56.38,24.51v-1.2a.53.53,0,0,0-.16-.35,1.42,1.42,0,0,0-.45-.36c-.19-.12-.37-.22-.52-.3L54.68,22l-.38-.17c-.27-.14-.53-.26-.77-.37a6.19,6.19,0,0,1-.67-.39,3.18,3.18,0,0,1-.54-.48A1.75,1.75,0,0,1,52,20a2.67,2.67,0,0,1-.13-.88v-.66a2.21,2.21,0,0,1,.81-1.75A3.56,3.56,0,0,1,55,16a3.32,3.32,0,0,1,2.35.73,2.36,2.36,0,0,1,.77,1.81v.93H56.25v-.83A1,1,0,0,0,56,18a1.2,1.2,0,0,0-.94-.3,1.66,1.66,0,0,0-1,.24.66.66,0,0,0-.35.55v.46a.88.88,0,0,0,.21.55,2,2,0,0,0,.54.46l.66.37a4.88,4.88,0,0,0,.6.28l.63.3.59.32a2.68,2.68,0,0,1,.52.36,2.83,2.83,0,0,1,.42.43,2.17,2.17,0,0,1,.27.55,2.48,2.48,0,0,1,.09.68v1.3a2.18,2.18,0,0,1-.81,1.73,3.57,3.57,0,0,1-2.41.71,3.42,3.42,0,0,1-2.37-.74,2.33,2.33,0,0,1-.8-1.77V23.31h1.89v1a.93.93,0,0,0,.32.67,1.34,1.34,0,0,0,1,.32,1.5,1.5,0,0,0,1-.27A.75.75,0,0,0,56.38,24.51Z"/><path class="cls-2" d="M59.7,16.17h1.62c.26,0,.4.06.42.17a1.09,1.09,0,0,1-.09.51,1.66,1.66,0,0,0,0,.4v9.52H59.7Z"/><path class="cls-2" d="M67.81,24.41V22.79h1.9V24.4a2.25,2.25,0,0,1-.88,1.82,3.66,3.66,0,0,1-2.4.73A3.76,3.76,0,0,1,64,26.22a2.22,2.22,0,0,1-.88-1.79V18.56A2.24,2.24,0,0,1,64,16.75a4.28,4.28,0,0,1,4.81,0,2.22,2.22,0,0,1,.91,1.78V20h-1.9V18.55a.76.76,0,0,0-.34-.62,1.7,1.7,0,0,0-1-.27,1.73,1.73,0,0,0-1,.28.77.77,0,0,0-.4.61v5.86a.78.78,0,0,0,.4.62,1.67,1.67,0,0,0,1,.3,1.62,1.62,0,0,0,1-.29A.77.77,0,0,0,67.81,24.41Z"/><path class="cls-2" d="M77.65,26.77H75.76V16.17h5.78v1.64H77.65v2.48h3.76v1.64H77.65Z"/><path class="cls-2" d="M88.21,26.77H82.49V16.17h5.7v1.64h-3.8v2.32h3.68v1.64H84.39v3.35h3.82Z"/><path class="cls-2" d="M93.76,24.51v-1.2A.58.58,0,0,0,93.6,23a1.42,1.42,0,0,0-.45-.36l-.52-.3L92.06,22l-.38-.17c-.27-.14-.53-.26-.77-.37a6.19,6.19,0,0,1-.67-.39,3.18,3.18,0,0,1-.54-.48,1.75,1.75,0,0,1-.35-.63,2.67,2.67,0,0,1-.13-.88v-.66A2.21,2.21,0,0,1,90,16.7,3.56,3.56,0,0,1,92.4,16a3.32,3.32,0,0,1,2.35.73,2.36,2.36,0,0,1,.77,1.81v.93h-1.9v-.83a1,1,0,0,0-.25-.69,1.22,1.22,0,0,0-.94-.3,1.72,1.72,0,0,0-1,.24.67.67,0,0,0-.34.55v.46a.88.88,0,0,0,.21.55,2,2,0,0,0,.54.46l.66.37a4.28,4.28,0,0,0,.6.28l.63.3.59.32a2.68,2.68,0,0,1,.52.36,2.83,2.83,0,0,1,.42.43,2.17,2.17,0,0,1,.27.55,2.48,2.48,0,0,1,.09.68v1.3a2.18,2.18,0,0,1-.81,1.73,3.57,3.57,0,0,1-2.41.71,3.4,3.4,0,0,1-2.37-.74,2.3,2.3,0,0,1-.8-1.77V23.31h1.89v1a1,1,0,0,0,.31.67,1.38,1.38,0,0,0,1,.32,1.51,1.51,0,0,0,1-.27A.75.75,0,0,0,93.76,24.51Z"/><path class="cls-2" d="M103.08,16.17v1.64H100.7v9H98.81v-9H96.42V16.17Z"/><path class="cls-2" d="M104.27,16.17h1.62c.25,0,.39.06.41.17a1.09,1.09,0,0,1-.09.51,2.23,2.23,0,0,0,0,.4v9.52h-1.9Z"/><path class="cls-2" d="M111,23.83l1.84-7.66h2l-2.77,10.6H110l-2.78-10.6h2Z"/><path class="cls-2" d="M119.34,16.17l3,10.6h-1.92l-.65-2.4h-2.92l-.65,2.4h-1.91l3-10.6Zm-1,2.76-1,3.79h2Z"/><path class="cls-2" d="M123.11,16.17h1.62c.25,0,.39.06.41.17a1.09,1.09,0,0,1-.09.51,2.23,2.23,0,0,0,0,.4v7.87h3.76v1.65h-5.66Z"/><path class="cls-2" d="M140.51,26.77h-5.93V25.49a3.77,3.77,0,0,1,.4-1.74,4.71,4.71,0,0,1,1.51-1.59c.49-.35.89-.66,1.19-.92a3.24,3.24,0,0,0,.64-.7,2,2,0,0,0,.23-.49,1.79,1.79,0,0,0,0-.5v-.92a1.08,1.08,0,0,0-.24-.67,1,1,0,0,0-.82-.3c-.75,0-1.12.33-1.12,1v1.44h-1.9V18.65a2.52,2.52,0,0,1,.76-1.89,3.1,3.1,0,0,1,2.26-.75,3,3,0,0,1,2.22.74,2.56,2.56,0,0,1,.74,1.89v1a3.16,3.16,0,0,1-.49,1.74,5.69,5.69,0,0,1-1.53,1.47,11,11,0,0,0-1.36,1.07,2.39,2.39,0,0,0-.54.64,1.31,1.31,0,0,0-.09.52v.07h4Z"/><path class="cls-2" d="M141.73,24.37V18.59a2.44,2.44,0,0,1,.78-1.83A3,3,0,0,1,144.7,16a3.07,3.07,0,0,1,2.2.75,2.45,2.45,0,0,1,.79,1.83v5.78a2.45,2.45,0,0,1-.79,1.83,3.07,3.07,0,0,1-2.2.75,3,3,0,0,1-2.19-.75A2.44,2.44,0,0,1,141.73,24.37Zm4.06,0V18.62a.94.94,0,0,0-.28-.69,1.34,1.34,0,0,0-1.61,0,1,1,0,0,0-.27.69v5.72a1,1,0,0,0,.27.7,1.26,1.26,0,0,0,1.61,0A.93.93,0,0,0,145.79,24.34Z"/><path class="cls-2" d="M154.92,26.77H149V25.49a3.9,3.9,0,0,1,.4-1.74,4.71,4.71,0,0,1,1.51-1.59c.5-.35.89-.66,1.2-.92a3.15,3.15,0,0,0,.63-.7,2,2,0,0,0,.23-.49,1.79,1.79,0,0,0,0-.5v-.92a1.08,1.08,0,0,0-.24-.67,1,1,0,0,0-.81-.3c-.76,0-1.13.33-1.13,1v1.44h-1.9V18.65a2.55,2.55,0,0,1,.76-1.89A3.12,3.12,0,0,1,152,16a3,3,0,0,1,2.21.74,2.56,2.56,0,0,1,.74,1.89v1a3.16,3.16,0,0,1-.49,1.74,5.69,5.69,0,0,1-1.53,1.47,11,11,0,0,0-1.36,1.07,2.39,2.39,0,0,0-.54.64,1.31,1.31,0,0,0-.09.52v.07h4Z"/><path class="cls-2" d="M162.13,26.77H156.2V25.49a3.78,3.78,0,0,1,.41-1.74,4.67,4.67,0,0,1,1.5-1.59,15,15,0,0,0,1.2-.92,2.92,2.92,0,0,0,.63-.7,2.13,2.13,0,0,0,.24-.49,2.35,2.35,0,0,0,0-.5v-.92A1.08,1.08,0,0,0,160,18a1,1,0,0,0-.81-.3c-.75,0-1.13.33-1.13,1v1.44h-1.9V18.65a2.52,2.52,0,0,1,.77-1.89,3.08,3.08,0,0,1,2.26-.75,3,3,0,0,1,2.21.74,2.56,2.56,0,0,1,.74,1.89v1a3.08,3.08,0,0,1-.49,1.74,5.69,5.69,0,0,1-1.53,1.47,11.77,11.77,0,0,0-1.36,1.07,2.39,2.39,0,0,0-.54.64,1.31,1.31,0,0,0-.09.52v.07h4Z"/><path class="cls-2" d="M29.08,9A42.29,42.29,0,0,0,17.42.51,5.4,5.4,0,0,0,12.5.7,37.86,37.86,0,0,0,2.65,7.37a7.75,7.75,0,0,0-2.31,3A5.63,5.63,0,0,0,.09,13.1,40.53,40.53,0,0,0,4.85,27.4,4.3,4.3,0,0,0,8,29.65a37.17,37.17,0,0,0,14.41,0,4,4,0,0,0,3-2.16,52.32,52.32,0,0,0,4.7-12.74c.48-2,.66-4-1-5.71m-1.67,3.92a7.69,7.69,0,0,1-2.8,1.54,24.85,24.85,0,0,0-3.39,1.48c-1.38.82-1.61,1.6-.95,3.09a26.31,26.31,0,0,0,2,3.38,6.81,6.81,0,0,1,1.11,2.49,1.55,1.55,0,0,1-.67,1.67c-.62.42-1.14.12-1.64-.23a15.47,15.47,0,0,1-2.52-2.72,17,17,0,0,0-2.25-2.47,1.69,1.69,0,0,0-2.29,0A18,18,0,0,0,11.32,24a13,13,0,0,1-2.17,2.22c-.54.4-1.13.68-1.75.22a1.54,1.54,0,0,1-.47-1.73A10.76,10.76,0,0,1,8.18,22c.62-1,1.26-2,1.82-3.09.78-1.49.61-2-.89-2.74s-2.84-1.25-4.25-1.9a6,6,0,0,1-2-1.34,1.55,1.55,0,0,1-.31-1.68,1.32,1.32,0,0,1,1.35-.8,12.75,12.75,0,0,1,3.62.69c.88.23,1.76.46,2.65.63,1.7.33,2.49-.25,2.64-2,.12-1.43.17-2.87.23-4.31a5.73,5.73,0,0,1,.47-2.08,1.66,1.66,0,0,1,1.67-1.11,1.71,1.71,0,0,1,1.7,1.08A7.19,7.19,0,0,1,17.45,6c0,1.36.1,2.72.23,4.07.06.69.13,1.49,1.09,1.61.45-.07.91.17,1.35,0,1.85-.08,3.55-.9,5.37-1.09a3.66,3.66,0,0,1,1.19,0,1.46,1.46,0,0,1,1.23,1,1.32,1.32,0,0,1-.5,1.38"/></g></g></g></svg>