<svg xmlns="http://www.w3.org/2000/svg" xmlns:xlink="http://www.w3.org/1999/xlink" viewBox="0 0 1920 1080"><defs><style>.cls-1{fill:none;}.cls-2{fill:#231916;opacity:0.1;}.cls-3{fill:url(#New_Pattern_Swatch_3);}</style><pattern id="New_Pattern_Swatch_3" data-name="New Pattern Swatch 3" width="1000" height="1000" patternTransform="translate(345.77 490.26) rotate(-45) scale(0.5)" patternUnits="userSpaceOnUse" viewBox="0 0 1000 1000"><rect class="cls-1" width="1000" height="1000"/><path class="cls-2" d="M1061.93,748.11a218.36,218.36,0,0,1-19.57,53,16.64,16.64,0,0,1-12.33,9,154.51,154.51,0,0,1-59.92.17c-5.83-1.17-10.34-3.92-13.22-9.39-9.92-18.74-17.38-38.27-19.81-59.48-1-3.9.1-7.61,1-11.34,1.84-5.21,5.75-8.91,9.62-12.49a158,158,0,0,1,41-27.74c6.74-3.14,13.37-4.23,20.47-.78a175.83,175.83,0,0,1,48.49,35.32C1064.66,731.44,1063.9,739.71,1061.93,748.11Zm-9.11-13.22c-.76-2.54-2.71-3.59-5.13-4.14a14.63,14.63,0,0,0-4.94.12c-7.59.81-14.66,4.2-22.34,4.55-1.86.78-3.74-.22-5.6.06-4-.51-4.29-3.81-4.57-6.7-.53-5.61-.77-11.27-1-16.91a29.44,29.44,0,0,0-2.21-11.15,7.14,7.14,0,0,0-7.06-4.52,7,7,0,0,0-7,4.62,23.73,23.73,0,0,0-1.93,8.68c-.27,6-.46,12-1,17.91-.63,7.27-3.89,9.69-11,8.33-3.71-.72-7.37-1.65-11-2.61-5-1.31-9.83-3-15.08-2.89-2.53.08-4.73.94-5.62,3.34a6.45,6.45,0,0,0,1.3,7,25.07,25.07,0,0,0,8.18,5.6c5.85,2.72,11.87,5.08,17.67,7.89,6.23,3,6.92,5.21,3.67,11.41-2.3,4.4-5,8.6-7.55,12.87a42.63,42.63,0,0,0-5.18,11.24c-.7,2.72-.48,5.38,1.94,7.19,2.59,1.94,5,.79,7.29-.88,3.52-2.59,6.21-6,9-9.26,3.56-4.16,6.85-8.57,11.29-11.89,3.25-2.43,6.35-2.34,9.53.15,3.72,2.91,6.36,6.78,9.39,10.29,3.35,3.89,6.17,8.28,10.45,11.31,2.1,1.47,4.27,2.72,6.85,1a6.52,6.52,0,0,0,2.79-7c-.62-3.84-2.6-7.12-4.63-10.35-2.92-4.63-6.22-9-8.45-14.06-2.75-6.2-1.77-9.45,4-12.87,4.43-2.65,9.35-4.18,14.09-6.14,4.11-1.7,8.44-3.09,11.67-6.41C1052.3,739.05,1053.54,737.31,1052.82,734.89Z"/><path class="cls-2" d="M561.93,998.11a218.36,218.36,0,0,1-19.57,53,16.64,16.64,0,0,1-12.33,9,154.51,154.51,0,0,1-59.92.17c-5.83-1.17-10.34-3.92-13.22-9.39-9.92-18.74-17.38-38.27-19.81-59.48-1-3.9.1-7.61,1-11.34,1.84-5.21,5.75-8.91,9.62-12.49a158,158,0,0,1,41-27.74c6.74-3.14,13.37-4.23,20.47-.78a175.83,175.83,0,0,1,48.49,35.32C564.66,981.44,563.9,989.71,561.93,998.11Zm-9.11-13.22c-.76-2.54-2.71-3.59-5.13-4.14a14.63,14.63,0,0,0-4.94.12c-7.59.81-14.66,4.2-22.34,4.55-1.86.78-3.74-.22-5.6.06-4-.51-4.29-3.81-4.57-6.7-.53-5.61-.77-11.27-.95-16.91a29.44,29.44,0,0,0-2.21-11.15A7.14,7.14,0,0,0,500,946.2a7,7,0,0,0-7,4.62,23.73,23.73,0,0,0-1.93,8.68c-.27,6-.46,12-1,17.91-.63,7.27-3.89,9.69-11,8.33-3.71-.72-7.37-1.65-11-2.61-5-1.31-9.83-3-15.08-2.89-2.53.08-4.73.94-5.62,3.34a6.45,6.45,0,0,0,1.3,7,25.07,25.07,0,0,0,8.18,5.6c5.85,2.72,11.87,5.08,17.67,7.89,6.23,3,6.92,5.21,3.67,11.41-2.3,4.4-5,8.6-7.55,12.87a42.63,42.63,0,0,0-5.18,11.24c-.7,2.72-.48,5.38,1.94,7.19,2.59,1.94,5,.79,7.29-.88,3.52-2.59,6.21-6,9-9.26,3.56-4.16,6.85-8.57,11.29-11.89,3.25-2.43,6.35-2.34,9.53.15,3.72,2.91,6.36,6.78,9.39,10.29,3.35,3.89,6.17,8.28,10.45,11.31,2.1,1.47,4.27,2.72,6.85,1a6.52,6.52,0,0,0,2.79-7c-.62-3.84-2.6-7.12-4.63-10.35-2.92-4.63-6.22-9-8.45-14.06-2.75-6.2-1.77-9.45,4-12.87,4.43-2.65,9.35-4.18,14.09-6.14,4.11-1.7,8.44-3.09,11.67-6.41C552.3,989.05,553.54,987.31,552.82,984.89Z"/><path class="cls-2" d="M61.93,748.11a218.36,218.36,0,0,1-19.57,53,16.64,16.64,0,0,1-12.33,9,154.51,154.51,0,0,1-59.92.17c-5.83-1.17-10.34-3.92-13.22-9.39-9.92-18.74-17.38-38.27-19.81-59.48-1-3.9.1-7.61,1-11.34,1.84-5.21,5.75-8.91,9.62-12.49a158,158,0,0,1,41-27.74c6.74-3.14,13.37-4.23,20.47-.78a175.83,175.83,0,0,1,48.49,35.32C64.66,731.44,63.9,739.71,61.93,748.11Zm-9.11-13.22c-.76-2.54-2.71-3.59-5.13-4.14a14.63,14.63,0,0,0-4.94.12c-7.59.81-14.66,4.2-22.34,4.55-1.86.78-3.74-.22-5.6.06-4-.51-4.29-3.81-4.57-6.7-.53-5.61-.77-11.27-1-16.91a29.44,29.44,0,0,0-2.21-11.15A7.14,7.14,0,0,0,0,696.2a7,7,0,0,0-7,4.62,23.73,23.73,0,0,0-1.93,8.68c-.27,6-.46,12-1,17.91-.63,7.27-3.89,9.69-11,8.33-3.71-.72-7.37-1.65-11-2.61-5-1.31-9.83-3-15.08-2.89-2.53.08-4.73.94-5.62,3.34a6.45,6.45,0,0,0,1.3,7,25.07,25.07,0,0,0,8.18,5.6c5.85,2.72,11.87,5.08,17.67,7.89,6.23,3,6.92,5.21,3.67,11.41-2.3,4.4-5,8.6-7.55,12.87a42.63,42.63,0,0,0-5.18,11.24c-.7,2.72-.48,5.38,1.94,7.19,2.59,1.94,5,.79,7.29-.88,3.52-2.59,6.21-6,9-9.26,3.56-4.16,6.85-8.57,11.29-11.89,3.25-2.43,6.35-2.34,9.53.15,3.72,2.91,6.36,6.78,9.39,10.29,3.35,3.89,6.17,8.28,10.45,11.31,2.1,1.47,4.27,2.72,6.85,1a6.52,6.52,0,0,0,2.79-7c-.62-3.84-2.6-7.12-4.63-10.35-2.92-4.63-6.22-9-8.45-14.06-2.75-6.2-1.77-9.45,4-12.87,4.43-2.65,9.35-4.18,14.09-6.14,4.11-1.7,8.44-3.09,11.67-6.41C52.3,739.05,53.54,737.31,52.82,734.89Z"/><path class="cls-2" d="M1061.93,248.11a218.36,218.36,0,0,1-19.57,53,16.64,16.64,0,0,1-12.33,9,154.51,154.51,0,0,1-59.92.17c-5.83-1.17-10.34-3.92-13.22-9.39-9.92-18.74-17.38-38.27-19.81-59.48-1-3.9.1-7.61,1-11.34,1.84-5.21,5.75-8.91,9.62-12.49a158,158,0,0,1,41-27.74c6.74-3.14,13.37-4.23,20.47-.78a175.83,175.83,0,0,1,48.49,35.32C1064.66,231.44,1063.9,239.71,1061.93,248.11Zm-9.11-13.22c-.76-2.54-2.71-3.59-5.13-4.14a14.63,14.63,0,0,0-4.94.12c-7.59.81-14.66,4.2-22.34,4.55-1.86.78-3.74-.22-5.6.06-4-.51-4.29-3.81-4.57-6.7-.53-5.61-.77-11.27-1-16.91a29.44,29.44,0,0,0-2.21-11.15,7.14,7.14,0,0,0-7.06-4.52,7,7,0,0,0-7,4.62,23.73,23.73,0,0,0-1.93,8.68c-.27,6-.46,12-1,17.91-.63,7.27-3.89,9.69-11,8.33-3.71-.72-7.37-1.65-11-2.61-5-1.31-9.83-3-15.08-2.89-2.53.08-4.73.94-5.62,3.34a6.45,6.45,0,0,0,1.3,7,25.07,25.07,0,0,0,8.18,5.6c5.85,2.72,11.87,5.08,17.67,7.89,6.23,3,6.92,5.21,3.67,11.41-2.3,4.4-5,8.6-7.55,12.87a42.63,42.63,0,0,0-5.18,11.24c-.7,2.72-.48,5.38,1.94,7.19,2.59,1.94,5,.79,7.29-.88,3.52-2.59,6.21-6,9-9.26,3.56-4.16,6.85-8.57,11.29-11.89,3.25-2.43,6.35-2.34,9.53.15,3.72,2.91,6.36,6.78,9.39,10.29,3.35,3.89,6.17,8.28,10.45,11.31,2.1,1.47,4.27,2.72,6.85,1a6.52,6.52,0,0,0,2.79-7c-.62-3.84-2.6-7.12-4.63-10.35-2.92-4.63-6.22-9-8.45-14.06-2.75-6.2-1.77-9.45,4-12.87,4.43-2.65,9.35-4.18,14.09-6.14,4.11-1.7,8.44-3.09,11.67-6.41C1052.3,239.05,1053.54,237.31,1052.82,234.89Z"/><path class="cls-2" d="M561.93,498.11a218.36,218.36,0,0,1-19.57,53,16.64,16.64,0,0,1-12.33,9,154.51,154.51,0,0,1-59.92.17c-5.83-1.17-10.34-3.92-13.22-9.39-9.92-18.74-17.38-38.27-19.81-59.48-1-3.9.1-7.61,1-11.34,1.84-5.21,5.75-8.91,9.62-12.49a158,158,0,0,1,41-27.74c6.74-3.14,13.37-4.23,20.47-.78a175.83,175.83,0,0,1,48.49,35.32C564.66,481.44,563.9,489.71,561.93,498.11Zm-9.11-13.22c-.76-2.54-2.71-3.59-5.13-4.14a14.63,14.63,0,0,0-4.94.12c-7.59.81-14.66,4.2-22.34,4.55-1.86.78-3.74-.22-5.6.06-4-.51-4.29-3.81-4.57-6.7-.53-5.61-.77-11.27-.95-16.91a29.44,29.44,0,0,0-2.21-11.15A7.14,7.14,0,0,0,500,446.2a7,7,0,0,0-7,4.62,23.73,23.73,0,0,0-1.93,8.68c-.27,6-.46,12-1,17.91-.63,7.27-3.89,9.69-11,8.33-3.71-.72-7.37-1.65-11-2.61-5-1.31-9.83-3.05-15.08-2.89-2.53.08-4.73.94-5.62,3.34a6.45,6.45,0,0,0,1.3,7,25.07,25.07,0,0,0,8.18,5.6c5.85,2.72,11.87,5.08,17.67,7.89,6.23,3,6.92,5.21,3.67,11.41-2.3,4.4-5,8.6-7.55,12.87a42.63,42.63,0,0,0-5.18,11.24c-.7,2.72-.48,5.38,1.94,7.19,2.59,1.94,5,.79,7.29-.88,3.52-2.59,6.21-6,9-9.26,3.56-4.16,6.85-8.57,11.29-11.89,3.25-2.43,6.35-2.34,9.53.15,3.72,2.91,6.36,6.78,9.39,10.29,3.35,3.89,6.17,8.28,10.45,11.31,2.1,1.47,4.27,2.72,6.85,1a6.52,6.52,0,0,0,2.79-7c-.62-3.84-2.6-7.12-4.63-10.35-2.92-4.63-6.22-9-8.45-14.06-2.75-6.2-1.77-9.45,4-12.87,4.43-2.65,9.35-4.18,14.09-6.14,4.11-1.7,8.44-3.09,11.67-6.41C552.3,489.05,553.54,487.31,552.82,484.89Z"/><path class="cls-2" d="M61.93,248.11a218.36,218.36,0,0,1-19.57,53,16.64,16.64,0,0,1-12.33,9,154.51,154.51,0,0,1-59.92.17c-5.83-1.17-10.34-3.92-13.22-9.39-9.92-18.74-17.38-38.27-19.81-59.48-1-3.9.1-7.61,1-11.34,1.84-5.21,5.75-8.91,9.62-12.49a158,158,0,0,1,41-27.74c6.74-3.14,13.37-4.23,20.47-.78a175.83,175.83,0,0,1,48.49,35.32C64.66,231.44,63.9,239.71,61.93,248.11Zm-9.11-13.22c-.76-2.54-2.71-3.59-5.13-4.14a14.63,14.63,0,0,0-4.94.12c-7.59.81-14.66,4.2-22.34,4.55-1.86.78-3.74-.22-5.6.06-4-.51-4.29-3.81-4.57-6.7-.53-5.61-.77-11.27-1-16.91a29.44,29.44,0,0,0-2.21-11.15A7.14,7.14,0,0,0,0,196.2a7,7,0,0,0-7,4.62,23.73,23.73,0,0,0-1.93,8.68c-.27,6-.46,12-1,17.91-.63,7.27-3.89,9.69-11,8.33-3.71-.72-7.37-1.65-11-2.61-5-1.31-9.83-3-15.08-2.89-2.53.08-4.73.94-5.62,3.34a6.45,6.45,0,0,0,1.3,7,25.07,25.07,0,0,0,8.18,5.6c5.85,2.72,11.87,5.08,17.67,7.89,6.23,3,6.92,5.21,3.67,11.41-2.3,4.4-5,8.6-7.55,12.87a42.63,42.63,0,0,0-5.18,11.24c-.7,2.72-.48,5.38,1.94,7.19,2.59,1.94,5,.79,7.29-.88,3.52-2.59,6.21-6,9-9.26,3.56-4.16,6.85-8.57,11.29-11.89,3.25-2.43,6.35-2.34,9.53.15,3.72,2.91,6.36,6.78,9.39,10.29,3.35,3.89,6.17,8.28,10.45,11.31,2.1,1.47,4.27,2.72,6.85,1a6.52,6.52,0,0,0,2.79-7c-.62-3.84-2.6-7.12-4.63-10.35-2.92-4.63-6.22-9-8.45-14.06-2.75-6.2-1.77-9.45,4-12.87,4.43-2.65,9.35-4.18,14.09-6.14,4.11-1.7,8.44-3.09,11.67-6.41C52.3,239.05,53.54,237.31,52.82,234.89Z"/><path class="cls-2" d="M561.93-1.89a218.36,218.36,0,0,1-19.57,53,16.64,16.64,0,0,1-12.33,9,154.51,154.51,0,0,1-59.92.17c-5.83-1.17-10.34-3.92-13.22-9.39C447,32.12,439.51,12.59,437.08-8.62c-1-3.9.1-7.61,1-11.34,1.84-5.21,5.75-8.91,9.62-12.49a158,158,0,0,1,41-27.74c6.74-3.14,13.37-4.23,20.47-.78a175.83,175.83,0,0,1,48.49,35.32C564.66-18.56,563.9-10.29,561.93-1.89Zm-9.11-13.22c-.76-2.54-2.71-3.59-5.13-4.14a14.63,14.63,0,0,0-4.94.12c-7.59.81-14.66,4.2-22.34,4.55-1.86.78-3.74-.22-5.6.06-4-.51-4.29-3.81-4.57-6.7-.53-5.61-.77-11.27-.95-16.91a29.44,29.44,0,0,0-2.21-11.15A7.14,7.14,0,0,0,500-53.8a7,7,0,0,0-7,4.62,23.73,23.73,0,0,0-1.93,8.68c-.27,6-.46,12-1,17.91-.63,7.27-3.89,9.69-11,8.33-3.71-.72-7.37-1.65-11-2.61-5-1.31-9.83-3.05-15.08-2.89-2.53.08-4.73.94-5.62,3.34a6.45,6.45,0,0,0,1.3,7,25.07,25.07,0,0,0,8.18,5.6c5.85,2.72,11.87,5.08,17.67,7.89,6.23,3,6.92,5.21,3.67,11.41-2.3,4.4-5,8.6-7.55,12.87a42.63,42.63,0,0,0-5.18,11.24c-.7,2.72-.48,5.38,1.94,7.19,2.59,1.94,5,.79,7.29-.88,3.52-2.59,6.21-6,9-9.26,3.56-4.16,6.85-8.57,11.29-11.89,3.25-2.43,6.35-2.34,9.53.15,3.72,2.91,6.36,6.78,9.39,10.29,3.35,3.89,6.17,8.28,10.45,11.31,2.1,1.47,4.27,2.72,6.85,1a6.52,6.52,0,0,0,2.79-7c-.62-3.84-2.6-7.12-4.63-10.35-2.92-4.63-6.22-9-8.45-14.06-2.75-6.2-1.77-9.45,4-12.87C529.41.55,534.33-1,539.07-2.94c4.11-1.7,8.44-3.09,11.67-6.41C552.3-10.95,553.54-12.69,552.82-15.11Z"/></pattern></defs><g id="Layer_2" data-name="Layer 2"><g id="Layer_1-2" data-name="Layer 1"><rect class="cls-3" width="1920" height="1080"/></g></g></svg>