<svg xmlns="http://www.w3.org/2000/svg" xmlns:xlink="http://www.w3.org/1999/xlink" viewBox="0 0 1920 1080"><defs><style>.cls-1{fill:none;}.cls-2{fill:#fff;opacity:0.5;}.cls-3{fill:url(#New_Pattern_Swatch_1);}</style><pattern id="New_Pattern_Swatch_1" data-name="New Pattern Swatch 1" width="500" height="500" patternTransform="translate(0.37 540.55) rotate(-45)" patternUnits="userSpaceOnUse" viewBox="0 0 500 500"><rect class="cls-1" width="500" height="500"/><path class="cls-2" d="M402.32,499.17a96.39,96.39,0,0,1-8.63,23.36,7.35,7.35,0,0,1-5.44,4,68.14,68.14,0,0,1-26.43.07,7.87,7.87,0,0,1-5.84-4.13c-4.37-8.27-7.66-16.88-8.73-26.24a10.11,10.11,0,0,1,.45-5c.81-2.3,2.53-3.93,4.24-5.51A69.87,69.87,0,0,1,370,473.45c3-1.38,5.9-1.86,9-.34a77.3,77.3,0,0,1,21.39,15.58C403.52,491.81,403.19,495.46,402.32,499.17Zm-4-5.83a2.68,2.68,0,0,0-2.26-1.83,6.38,6.38,0,0,0-2.18.05c-3.35.36-6.47,1.85-9.86,2-.82.34-1.65-.1-2.47,0-1.78-.23-1.89-1.69-2-3-.24-2.48-.34-5-.42-7.46a12.84,12.84,0,0,0-1-4.91,3.14,3.14,0,0,0-3.11-2,3.06,3.06,0,0,0-3.07,2,10.27,10.27,0,0,0-.85,3.83c-.12,2.63-.2,5.27-.43,7.9-.28,3.2-1.72,4.27-4.85,3.67-1.63-.32-3.25-.73-4.85-1.15-2.19-.58-4.34-1.35-6.66-1.28a2.45,2.45,0,0,0-2.47,1.48,2.83,2.83,0,0,0,.57,3.07A11.11,11.11,0,0,0,356,498.3c2.58,1.2,5.23,2.24,7.79,3.48,2.75,1.33,3.05,2.3,1.62,5-1,1.94-2.2,3.79-3.33,5.68a18.94,18.94,0,0,0-2.29,5,2.79,2.79,0,0,0,.86,3.17c1.14.85,2.22.34,3.22-.39a24.79,24.79,0,0,0,4-4.09,33,33,0,0,1,5-5.24,3.12,3.12,0,0,1,4.2.07,30.74,30.74,0,0,1,4.14,4.54c1.48,1.71,2.72,3.65,4.61,5,.93.65,1.88,1.2,3,.44a2.88,2.88,0,0,0,1.23-3.08,12.43,12.43,0,0,0-2-4.56,48.76,48.76,0,0,1-3.73-6.2c-1.21-2.74-.78-4.17,1.75-5.68a46.3,46.3,0,0,1,6.21-2.71c1.81-.75,3.72-1.36,5.15-2.82A2.48,2.48,0,0,0,398.3,493.34Z"/><path class="cls-2" d="M152.32,499.17a96.39,96.39,0,0,1-8.63,23.36,7.35,7.35,0,0,1-5.44,4,68.14,68.14,0,0,1-26.43.07,7.87,7.87,0,0,1-5.84-4.13c-4.37-8.27-7.66-16.88-8.73-26.24a10.11,10.11,0,0,1,.45-5c.81-2.3,2.53-3.93,4.24-5.51A69.87,69.87,0,0,1,120,473.45c3-1.38,5.9-1.86,9-.34a77.3,77.3,0,0,1,21.39,15.58C153.52,491.81,153.19,495.46,152.32,499.17Zm-4-5.83a2.68,2.68,0,0,0-2.26-1.83,6.38,6.38,0,0,0-2.18.05c-3.35.36-6.47,1.85-9.86,2-.82.34-1.65-.1-2.47,0-1.78-.23-1.89-1.69-2-3-.24-2.48-.34-5-.42-7.46a12.84,12.84,0,0,0-1-4.91,3.14,3.14,0,0,0-3.11-2,3.06,3.06,0,0,0-3.07,2,10.27,10.27,0,0,0-.85,3.83c-.12,2.63-.2,5.27-.43,7.9-.28,3.2-1.72,4.27-4.85,3.67-1.63-.32-3.25-.73-4.85-1.15-2.19-.58-4.34-1.35-6.66-1.28a2.45,2.45,0,0,0-2.47,1.48,2.83,2.83,0,0,0,.57,3.07A11.11,11.11,0,0,0,106,498.3c2.58,1.2,5.23,2.24,7.79,3.48,2.75,1.33,3,2.3,1.62,5-1,1.94-2.2,3.79-3.33,5.68a18.94,18.94,0,0,0-2.29,5,2.79,2.79,0,0,0,.86,3.17c1.14.85,2.22.34,3.22-.39a24.79,24.79,0,0,0,4-4.09,33,33,0,0,1,5-5.24,3.12,3.12,0,0,1,4.2.07,30.74,30.74,0,0,1,4.14,4.54c1.48,1.71,2.72,3.65,4.61,5,.93.65,1.88,1.2,3,.44a2.88,2.88,0,0,0,1.23-3.08,12.43,12.43,0,0,0-2-4.56,48.76,48.76,0,0,1-3.73-6.2c-1.21-2.74-.78-4.17,1.75-5.68a46.3,46.3,0,0,1,6.21-2.71c1.81-.75,3.72-1.36,5.15-2.82A2.48,2.48,0,0,0,148.3,493.34Z"/><path class="cls-2" d="M527.32,249.17a96.39,96.39,0,0,1-8.63,23.36,7.35,7.35,0,0,1-5.44,4,68.14,68.14,0,0,1-26.43.07,7.87,7.87,0,0,1-5.84-4.13c-4.37-8.27-7.66-16.88-8.73-26.24a10.11,10.11,0,0,1,.45-5c.81-2.3,2.53-3.93,4.24-5.51A69.87,69.87,0,0,1,495,223.45c3-1.38,5.9-1.86,9-.34a77.3,77.3,0,0,1,21.39,15.58C528.52,241.81,528.19,245.46,527.32,249.17Zm-4-5.83a2.68,2.68,0,0,0-2.26-1.83,6.38,6.38,0,0,0-2.18.05c-3.35.36-6.47,1.85-9.86,2-.82.34-1.65-.1-2.47,0-1.78-.23-1.89-1.69-2-3-.24-2.48-.34-5-.42-7.46a12.84,12.84,0,0,0-1-4.91,3.14,3.14,0,0,0-3.11-2,3.06,3.06,0,0,0-3.07,2,10.27,10.27,0,0,0-.85,3.83c-.12,2.63-.2,5.27-.43,7.9-.28,3.2-1.72,4.27-4.85,3.67-1.63-.32-3.25-.73-4.85-1.15-2.19-.58-4.34-1.35-6.66-1.28a2.45,2.45,0,0,0-2.47,1.48,2.83,2.83,0,0,0,.57,3.07A11.11,11.11,0,0,0,481,248.3c2.58,1.2,5.23,2.24,7.79,3.48,2.75,1.33,3.05,2.3,1.62,5-1,1.94-2.2,3.79-3.33,5.68a18.94,18.94,0,0,0-2.29,5,2.79,2.79,0,0,0,.86,3.17c1.14.85,2.22.34,3.22-.39a24.79,24.79,0,0,0,4-4.09,33,33,0,0,1,5-5.24,3.12,3.12,0,0,1,4.2.07,30.74,30.74,0,0,1,4.14,4.54c1.48,1.71,2.72,3.65,4.61,5,.93.65,1.88,1.2,3,.44a2.88,2.88,0,0,0,1.23-3.08,12.43,12.43,0,0,0-2-4.56,48.76,48.76,0,0,1-3.73-6.2c-1.21-2.74-.78-4.17,1.75-5.68a46.3,46.3,0,0,1,6.21-2.71c1.81-.75,3.72-1.36,5.15-2.82A2.48,2.48,0,0,0,523.3,243.34Z"/><path class="cls-2" d="M277.32,249.17a96.39,96.39,0,0,1-8.63,23.36,7.35,7.35,0,0,1-5.44,4,68.14,68.14,0,0,1-26.43.07,7.87,7.87,0,0,1-5.84-4.13c-4.37-8.27-7.66-16.88-8.73-26.24a10.11,10.11,0,0,1,.45-5c.81-2.3,2.53-3.93,4.24-5.51A69.87,69.87,0,0,1,245,223.45c3-1.38,5.9-1.86,9-.34a77.3,77.3,0,0,1,21.39,15.58C278.52,241.81,278.19,245.46,277.32,249.17Zm-4-5.83a2.68,2.68,0,0,0-2.26-1.83,6.38,6.38,0,0,0-2.18.05c-3.35.36-6.47,1.85-9.86,2-.82.34-1.65-.1-2.47,0-1.78-.23-1.89-1.69-2-3-.24-2.48-.34-5-.42-7.46a12.84,12.84,0,0,0-1-4.91,3.14,3.14,0,0,0-3.11-2,3.06,3.06,0,0,0-3.07,2,10.27,10.27,0,0,0-.85,3.83c-.12,2.63-.2,5.27-.43,7.9-.28,3.2-1.72,4.27-4.85,3.67-1.63-.32-3.25-.73-4.85-1.15-2.19-.58-4.34-1.35-6.66-1.28a2.45,2.45,0,0,0-2.47,1.48,2.83,2.83,0,0,0,.57,3.07A11.11,11.11,0,0,0,231,248.3c2.58,1.2,5.23,2.24,7.79,3.48,2.75,1.33,3,2.3,1.62,5-1,1.94-2.2,3.79-3.33,5.68a18.94,18.94,0,0,0-2.29,5,2.79,2.79,0,0,0,.86,3.17c1.14.85,2.22.34,3.22-.39a24.79,24.79,0,0,0,4-4.09,33,33,0,0,1,5-5.24,3.12,3.12,0,0,1,4.2.07,30.74,30.74,0,0,1,4.14,4.54c1.48,1.71,2.72,3.65,4.61,5,.93.65,1.88,1.2,3,.44a2.88,2.88,0,0,0,1.23-3.08,12.43,12.43,0,0,0-2-4.56,48.76,48.76,0,0,1-3.73-6.2c-1.21-2.74-.78-4.17,1.75-5.68a46.3,46.3,0,0,1,6.21-2.71c1.81-.75,3.72-1.36,5.15-2.82A2.48,2.48,0,0,0,273.3,243.34Z"/><path class="cls-2" d="M27.32,249.17a96.39,96.39,0,0,1-8.63,23.36,7.35,7.35,0,0,1-5.44,4,68.14,68.14,0,0,1-26.43.07A7.87,7.87,0,0,1-19,272.44c-4.37-8.27-7.66-16.88-8.73-26.24a10.11,10.11,0,0,1,.45-5c.81-2.3,2.53-3.93,4.24-5.51A69.87,69.87,0,0,1-5,223.45c3-1.38,5.9-1.86,9-.34a77.3,77.3,0,0,1,21.39,15.58C28.52,241.81,28.19,245.46,27.32,249.17Zm-4-5.83A2.68,2.68,0,0,0,21,241.51a6.38,6.38,0,0,0-2.18.05c-3.35.36-6.47,1.85-9.86,2-.82.34-1.65-.1-2.47,0-1.78-.23-1.89-1.69-2-3-.24-2.48-.34-5-.42-7.46a12.84,12.84,0,0,0-1-4.91,3.14,3.14,0,0,0-3.11-2,3.06,3.06,0,0,0-3.07,2,10.27,10.27,0,0,0-.85,3.83c-.12,2.63-.2,5.27-.43,7.9-.28,3.2-1.72,4.27-4.85,3.67-1.63-.32-3.25-.73-4.85-1.15-2.19-.58-4.34-1.35-6.66-1.28a2.45,2.45,0,0,0-2.47,1.48,2.83,2.83,0,0,0,.57,3.07A11.11,11.11,0,0,0-19,248.3c2.58,1.2,5.23,2.24,7.79,3.48,2.75,1.33,3,2.3,1.62,5-1,1.94-2.2,3.79-3.33,5.68a18.94,18.94,0,0,0-2.29,5,2.79,2.79,0,0,0,.86,3.17c1.14.85,2.22.34,3.22-.39a24.79,24.79,0,0,0,4-4.09,33,33,0,0,1,5-5.24A3.12,3.12,0,0,1,2,261a30.74,30.74,0,0,1,4.14,4.54c1.48,1.71,2.72,3.65,4.61,5,.93.65,1.88,1.2,3,.44A2.88,2.88,0,0,0,15,267.85a12.43,12.43,0,0,0-2-4.56,48.76,48.76,0,0,1-3.73-6.2c-1.21-2.74-.78-4.17,1.75-5.68a46.3,46.3,0,0,1,6.21-2.71c1.81-.75,3.72-1.36,5.15-2.82A2.48,2.48,0,0,0,23.3,243.34Z"/><path class="cls-2" d="M402.32-.83a96.39,96.39,0,0,1-8.63,23.36,7.35,7.35,0,0,1-5.44,4,68.14,68.14,0,0,1-26.43.07A7.87,7.87,0,0,1,356,22.44c-4.37-8.27-7.66-16.88-8.73-26.24a10.11,10.11,0,0,1,.45-5c.81-2.3,2.53-3.93,4.24-5.51A69.87,69.87,0,0,1,370-26.55c3-1.38,5.9-1.86,9-.34a77.3,77.3,0,0,1,21.39,15.58C403.52-8.19,403.19-4.54,402.32-.83Zm-4-5.83A2.68,2.68,0,0,0,396-8.49a6.38,6.38,0,0,0-2.18.05c-3.35.36-6.47,1.85-9.86,2-.82.34-1.65-.1-2.47,0-1.78-.23-1.89-1.69-2-3-.24-2.48-.34-5-.42-7.46a12.84,12.84,0,0,0-1-4.91,3.14,3.14,0,0,0-3.11-2,3.06,3.06,0,0,0-3.07,2,10.27,10.27,0,0,0-.85,3.83c-.12,2.63-.2,5.27-.43,7.9-.28,3.2-1.72,4.27-4.85,3.67-1.63-.32-3.25-.73-4.85-1.15-2.19-.58-4.34-1.35-6.66-1.28a2.45,2.45,0,0,0-2.47,1.48,2.83,2.83,0,0,0,.57,3.07A11.11,11.11,0,0,0,356-1.7c2.58,1.2,5.23,2.24,7.79,3.48,2.75,1.33,3.05,2.3,1.62,5-1,1.94-2.2,3.79-3.33,5.68a18.94,18.94,0,0,0-2.29,5,2.79,2.79,0,0,0,.86,3.17c1.14.85,2.22.34,3.22-.39a24.79,24.79,0,0,0,4-4.09,33,33,0,0,1,5-5.24A3.12,3.12,0,0,1,377,11a30.74,30.74,0,0,1,4.14,4.54c1.48,1.71,2.72,3.65,4.61,5,.93.65,1.88,1.2,3,.44A2.88,2.88,0,0,0,390,17.85a12.43,12.43,0,0,0-2-4.56,48.76,48.76,0,0,1-3.73-6.2c-1.21-2.74-.78-4.17,1.75-5.68a46.3,46.3,0,0,1,6.21-2.71C394-2,396-2.66,397.38-4.12A2.48,2.48,0,0,0,398.3-6.66Z"/><path class="cls-2" d="M152.32-.83a96.39,96.39,0,0,1-8.63,23.36,7.35,7.35,0,0,1-5.44,4,68.14,68.14,0,0,1-26.43.07A7.87,7.87,0,0,1,106,22.44c-4.37-8.27-7.66-16.88-8.73-26.24a10.11,10.11,0,0,1,.45-5c.81-2.3,2.53-3.93,4.24-5.51A69.87,69.87,0,0,1,120-26.55c3-1.38,5.9-1.86,9-.34a77.3,77.3,0,0,1,21.39,15.58C153.52-8.19,153.19-4.54,152.32-.83Zm-4-5.83A2.68,2.68,0,0,0,146-8.49a6.38,6.38,0,0,0-2.18.05c-3.35.36-6.47,1.85-9.86,2-.82.34-1.65-.1-2.47,0-1.78-.23-1.89-1.69-2-3-.24-2.48-.34-5-.42-7.46a12.84,12.84,0,0,0-1-4.91,3.14,3.14,0,0,0-3.11-2,3.06,3.06,0,0,0-3.07,2,10.27,10.27,0,0,0-.85,3.83c-.12,2.63-.2,5.27-.43,7.9-.28,3.2-1.72,4.27-4.85,3.67-1.63-.32-3.25-.73-4.85-1.15-2.19-.58-4.34-1.35-6.66-1.28a2.45,2.45,0,0,0-2.47,1.48,2.83,2.83,0,0,0,.57,3.07A11.11,11.11,0,0,0,106-1.7c2.58,1.2,5.23,2.24,7.79,3.48,2.75,1.33,3,2.3,1.62,5-1,1.94-2.2,3.79-3.33,5.68a18.94,18.94,0,0,0-2.29,5,2.79,2.79,0,0,0,.86,3.17c1.14.85,2.22.34,3.22-.39a24.79,24.79,0,0,0,4-4.09,33,33,0,0,1,5-5.24A3.12,3.12,0,0,1,127,11a30.74,30.74,0,0,1,4.14,4.54c1.48,1.71,2.72,3.65,4.61,5,.93.65,1.88,1.2,3,.44A2.88,2.88,0,0,0,140,17.85a12.43,12.43,0,0,0-2-4.56,48.76,48.76,0,0,1-3.73-6.2c-1.21-2.74-.78-4.17,1.75-5.68a46.3,46.3,0,0,1,6.21-2.71C144-2,146-2.66,147.38-4.12A2.48,2.48,0,0,0,148.3-6.66Z"/></pattern></defs><g id="Layer_2" data-name="Layer 2"><g id="Layer_1-2" data-name="Layer 1"><rect class="cls-3" width="1920" height="1080"/></g></g></svg>