<svg xmlns="http://www.w3.org/2000/svg" viewBox="0 0 96.78 108.13"><defs><style>.cls-1{fill:none;stroke:#e82d6a;stroke-linecap:round;stroke-linejoin:round;stroke-width:5px;}</style></defs><g id="Layer_2" data-name="Layer 2"><g id="Layer_1-2" data-name="Layer 1"><path class="cls-1" d="M50.3,49.15V70.28a7.62,7.62,0,0,1-7.86,7.35h0a7.62,7.62,0,0,1-7.87-7.35V54.15"/><path class="cls-1" d="M34.26,54.15V70.28a7.62,7.62,0,0,1-7.86,7.35h0a7.62,7.62,0,0,1-7.86-7.35V49.15"/><path class="cls-1" d="M18.22,49.15V85.28a7.62,7.62,0,0,1-7.86,7.35h0A7.62,7.62,0,0,1,2.5,85.28V36.56C2.5,28,10.59,2.5,36,2.5S63.57,23.27,72,34.3C76.15,39.72,101.68,60,92.17,69.37,85.84,75.6,66.33,57.93,66.33,57.93V98.28a7.62,7.62,0,0,1-7.86,7.35h0a7.62,7.62,0,0,1-7.86-7.35V49.15"/></g></g></svg>