<svg xmlns="http://www.w3.org/2000/svg" viewBox="0 0 251 53.14"><defs><style>.cls-1{fill:#fff;}</style></defs><g id="Layer_2" data-name="Layer 2"><g id="Layer_1-2" data-name="Layer 1"><path class="cls-1" d="M19.61,49.06l-2.11.55a3.42,3.42,0,0,1-.68-.17c-1.36-1.15-2.26-2.3-1.25-3.49a.83.83,0,0,0-.05-1.3c-2.06-1.82-.3-3.65-.95-5.48a2.29,2.29,0,0,0-.7-.85c-.76-.64-1.6-1.28-2.39-1.9,2.55-.25,2.51-.64,2.4-1-.56-2-1.16-3.94-1.93-5.91-.19-.49-1-1-1.62-1.47A4.8,4.8,0,0,0,9,27.85a3,3,0,0,0-1,.21,3.19,3.19,0,0,1-.85.41l-1.37-1-3.33.16c.11.23.25.52.36.8s.14.55-1.3.84c-.15-.07-.3-.11-.33-.16a20.24,20.24,0,0,1-1.17-2c-.09-.19.15-.38.42-.57a16,16,0,0,1,1.83-1,3.86,3.86,0,0,1,1.39-.33c2.11-.12,2.2-.44,2.47-.74a.46.46,0,0,0,0-.5c-.14-.45.56-.86,2.19-1.18,2.41-.46,2.67-1.07,2.72-1.62a6.78,6.78,0,0,0-.91-3.25c-.16-.36-1.06-.7-1.56-1.06a2.32,2.32,0,0,1-.68-.62c-.11-.21.06-.4,1.67-.42.34,0,1-.17.91-.24C10,15,9.38,14.31,8.81,13.67a1.31,1.31,0,0,1-.4-.63c-.14-1.6-.18-3.2-.4-4.81-.08-.55-.63-1.11-.91-1.66A1.09,1.09,0,0,1,7,5.83c0-.13.2-.31.66-.37,2-.23,1.68-.58,1.88-.92.53-.91,1-1.83,1.62-2.74a4.76,4.76,0,0,1,1.25-.58h.93l1.3.79c2.9.17,3,.18,3.3.83.16.34.1.69.4,1a5.25,5.25,0,0,0,1.28.56c.2.09.39.19.42.29.34,1.29,1.13,2.6.78,3.89-.22.79.65,1.63-1.66,2.4-.46.15-.2.39,0,.59A3.55,3.55,0,0,1,19.55,15c-.17.7.44,1.4.71,2.1H21a3,3,0,0,0,.2-.91c0-.22.1-.4,1.42-.51,1.5-.14,2-.6,1.74-.91s-.37-.6,0-.88.41-.63,0-.95.07-.48.42-.71A5.81,5.81,0,0,1,26.31,12a7.22,7.22,0,0,1,1.81.27,15.76,15.76,0,0,1,1.81,1h.57c.18-.07.5-.15.53-.23s-.17-.43.08-.64a7.43,7.43,0,0,1,1.48-.69c.77-.3,1.81-.58,2.41-.89,1.28-.67,2.38-1.36,3.49-2,.21-.13.1-.28.16-.42a.3.3,0,0,1,.19-.21c.78-.32,1.61-.64,2.4-1,1.14-.47,2.32-.93,3.36-1.41.68-.31,1.11-.63,1.74-1,.33-.16.89-.31,1.31-.46s.94-.29,1-.44c.26-.44.17-.88,2-1.25.92-.19,1-.52,1.45-.79L55,.16l.6,0c.3.13.83.27.88.4.19.51.18,1,.35,1.52,0,.09.53.19.81.28.38-.09,1.07-.19,1.08-.29a8.12,8.12,0,0,0-.1-1.48A1.65,1.65,0,0,1,58.72,0l.61,0c.42.19,1.19.38,1.19.56,0,.36-.41.73-.7,1.09a10.71,10.71,0,0,1-1.43,1.69,45.73,45.73,0,0,1-11.81,7.78c-1.73.78-4.34,1.49-6.38,2.26-1.39.52-2.49,1.06-3.71,1.6-.17.07-.26.15-.46.22-2.43.81-3.1,1.69-2.46,2.6a31.35,31.35,0,0,0,2.17,2.78,6.62,6.62,0,0,0,1.44.65c.27.12.69.25.7.38.09.93,2.38,1.77,3.32,2.67,1.35,1.29,2.49,2.6,3.68,3.9.92,1,1.78,2,2.67,3a3.58,3.58,0,0,0,.46.26l1.34-.59h.41v1.85l1.53-.24c2.62,1.94,2.4,3.88,2.51,5.83l1.65-.11c.25.21.72.41.67.6C55.81,40,57.5,41,59.42,42.09c1.35.75.78,1.5.44,2.26-.15.32.09.66.48,1s.1.62,2,.78c.37,0,.36.25.37.38,0,.43.8.79,1.87,1.17s1,.78,1.4,1.17c.6.64,1.08,1.28,1.67,1.92.32.34.2.64-.5,1s-.23.65-.23,1c0,.1.22.21.4.37l-2.74,0c-.15-.29-.09-.58-.49-.84A10.4,10.4,0,0,0,62,51.36a15.64,15.64,0,0,0-1.71-.15,2.72,2.72,0,0,0-.68.32,10.75,10.75,0,0,0-.7,1.06l-.62,0a9.41,9.41,0,0,1-2.2-.92,6.15,6.15,0,0,1-.79-1.9c-.32-.74-.7-1.47-1.07-2.21,0-.06,0-.16-.25-.19-2.55-.39-1.7-1-2.37-1.46-1.59-1.18-3.11-2.35-4.73-3.52-.84-.61-1.34-1.21-.63-1.83.11-.09.16-.23-.12-.29-1.42-.33-1.13-.72-1.32-1.09-.3-.62-.54-1.23-.8-1.84-2-.11-2.31-.27-2.48-.76-.52-1.49-.72-3-1.91-4.48-.72-.9-2.85-1.77-4.69-2.63-1.19-.56-1.7-1.12-1.58-1.71s.35-1.11.52-1.67a2,2,0,0,0,0-.49l-3.11.48c-.34-1-1.24-2,.55-2.89.62-.31.31-.59-.32-.9a13.06,13.06,0,0,1-2.16-1.49,3.15,3.15,0,0,0-.7-.48A7.79,7.79,0,0,0,27,20.1a8,8,0,0,0-1,.24,22.61,22.61,0,0,1-4.38,2.05c-2.28.66-1.91,1.3-1.64,2l1.63,0,.18.56-2.36-.26a2.94,2.94,0,0,0,0,.79c.55,1.89,1.26,3.78,1.62,5.67a5.78,5.78,0,0,1-.58,2.51c0,.06-.18.14-.42.17-1.21.17-.76.32.09.47s1,.34.26.54c-.35.11-.54.25-.5.37a50.13,50.13,0,0,1,1.83,6c.19,1.22-.47,2.44-.75,3.66-.15.62-.36,1.23-.46,1.85,0,.22-.27.48,1.44.57.18,0,.35.09.35.14,0,.62,0,1.24,0,1.87a2.42,2.42,0,0,1-.33.11Z"/><path class="cls-1" d="M127.57,13.26l1.59.57.62,0a2.44,2.44,0,0,0-.4-1.06c-.43-.5-.47-1,.68-1.44s2.57-.92,3.71-1.38a.91.91,0,0,0,.6-.58c.09-.25.08-.48,1.35-.66a1.09,1.09,0,0,0,.73-.33c.42-.4.72-.81,1.15-1.22a3.5,3.5,0,0,1,.79-.31L139.8,7l.59.07c.17-.13.43-.25.46-.36.11-.44,1.81-.79,3.47-.88a43.08,43.08,0,0,1,7-.32,5.68,5.68,0,0,0,1.41-.17c.88-.34,1.6-.7,2.52-1.11l3.46.7c1.82-.09,2-.4,2.24-.69s.59-.58.89-.88c2.75.17,1.06.63,2.47,1l.44-1c2.94.07,3.43,0,4.14-.56.52-.44,1.87-.67,4.24-.83.21.36.37.71.62,1.06,1.56,2.23.39,4.48.48,6.71a13.43,13.43,0,0,0,.65,3.56c.47,1.49,1.19,3,1.76,4.46.06.17-.21.34-.19.5s-.11.4.4.52c1,.23,1,.49,1.08.75.14.69.47,1.37.06,2.07s.52,1.23.44,1.84a7.51,7.51,0,0,1-.95,2.1,1.13,1.13,0,0,0-.18.5c.07,1.1.47,2.2-.64,3.29-.09.09,0,.19.26.3l.79-.49h.7a3.53,3.53,0,0,1,.28,1.25c-.09.62-.7,1.25-.52,1.87s1.11,1.46,1.56,2.19a2.87,2.87,0,0,1,.25,1.2c0,.18,0,.36.07.53,1,1.59-.23,3.16-.56,4.73-.17.8-1.47,1.59-.7,2.4.18.19-.37.41-.59.62-.78,0-1.28-.09-1.79-.09-1.11,0-1.28-.12-1.21-.29s.3-.47.12-.7-.92-.34-1.24-.52-1.06-.51-1-.76c.27-1,.82-1.92,1.19-2.88a3.71,3.71,0,0,0,.19-1.35c0-.09-.4-.18-.62-.27l-.66,0a9.45,9.45,0,0,0-1.83,1.52c-.31.49-.07,1-.48,1.48-.63-1.54.1-3.09.11-4.65l-1.65,0a1.19,1.19,0,0,1-.23-.05c-2.77-3-2.92-5.9,1-8.83.22-.17.38-.36.22-.53a7.05,7.05,0,0,0-1.34-.27,3.78,3.78,0,0,0-.8.3,10.61,10.61,0,0,0-.84,1h-1l-.81-1.85c-1.55.21-1.84.77-4.09.33a5.89,5.89,0,0,1-3.22-.16A12,12,0,0,0,156,26a11.55,11.55,0,0,0-2.47,2.57c-.56.93-.4,1.88-.93,2.81A6.35,6.35,0,0,1,150.1,34c-1.14.69-1.65,1.4-2.85,2.06-1.42.77-1.81,1.58-3.21,2.34-.53.29-.43.62-.56.93-.21.56-.14,1.1-1.63,1.63-.77.28-.41.66-.51,1a4.64,4.64,0,0,1-.85,1.85l-2.42-.66-.83,0a2,2,0,0,0-.29.63c0,.89,0,1.78-.09,2.68,0,.08-.51.16-.86.24-1.64.34-2.61.73-2.39,1.19s-.28.65-2.46.71v1.66c-1.25.05-1.87,0-2-.19-.44-.67-1.3-1.33-1.3-2a8.47,8.47,0,0,1,.82-3.72c.35-.75,1.7-1.47,2.3-2.21a19.43,19.43,0,0,0,2.51-3.63c1.05-2.18,3-4.32,6.46-6.42,1.6-1,1.82-2,2.75-3a7.64,7.64,0,0,1,3.69-2.4c.79-.28.5-.67.71-1-.59,0-.75,0-.81,0-2.21.35-2.21.35-3.85-.13a4.57,4.57,0,0,0-2.29,0c-.38.09-.86.15-1.4.25-1-.33.06-.8-2.09-1l-2.37.31a3.54,3.54,0,0,1-.77-.48,10.12,10.12,0,0,0-1.91-2.14l-1.75.58h-.54c-.32-.26-.9-.52-.9-.78a4.56,4.56,0,0,1,.45-1.91c.43-.94-1.42-1.81-2-2.72a4,4,0,0,1-.66-1.44,9.42,9.42,0,0,1,.1-2.31c0-.22.37-.43.57-.65Zm21,8.8a1.13,1.13,0,0,1,.33-.16c.32-.07.71-.13,1.07-.2a6.61,6.61,0,0,1,.92.22c1,.52,1,.51,3.54.24a24.6,24.6,0,0,1,3.41-.18,11.68,11.68,0,0,0,2.93-.12,18.54,18.54,0,0,0,2.35-.63c.87-.3,1.56-.62,2.49-1l.92.68h.75c0-.35.49-.71.08-1a1.63,1.63,0,0,1-.44-2.27c.34-.76-.09-1.53-.26-2.3-.1-.45-.52-.89-.47-1.34a12.76,12.76,0,0,1,.66-2.25c.47-1.53-3.81-2.6-10-3.51a3.12,3.12,0,0,1-.67.26,7,7,0,0,1-2.61.06c-2.63-.5-2.78-.49-3.83.18-.15.1-.32.2-.43.29-.93.83-2.86,1.55-6,2.18a2.25,2.25,0,0,0-1.42.7c-.27.32.05.65-.3,1s-.43.72-2.91.81c-.26,0-.6.12-.58.18a8.5,8.5,0,0,0,.92,1.9c.48.67,1.24,1.32,1.78,2,.08.09-.21.24-.61.3-1.61.27-1.55.45-.06.75a8.38,8.38,0,0,1,2.13.67c.42.21.33.46.53.69.42.49.88,1,1.37,1.51l2-.34Z"/><path class="cls-1" d="M228.83,14.54l-1.81,1c-1.66-.33-2.7-.61-2.64-1,0-.23.46-.49-1.23-.62a.53.53,0,0,1-.32-.12c-1.07-.6-2.11-1.21-3.21-1.81a9.47,9.47,0,0,0-1.05-.4l-1.95.27-.8-.33-1.21.53-1-.27a3.73,3.73,0,0,0-2.53,0c-3.31.92-4.91,1.94-5.6,3-.94,1.48-1.76,3-2.63,4.44,0,.06-.08.12-.56.23l-2.5-.68h-.43c-.06.12-.12.24-.17.36-.44,1.11-.87,2.21-1.32,3.32,0,.08-.08.19-.37.25-2.72.48-2.45,1.09-2.14,1.69,0,0,.05,0,0,0-.61.45-.18.85,1.13,1.27.55.18-.08.54-.7.77-1.66.6-1.57,1.19-.12,1.8.9.38.77.77.33,1.18s-.29.75-.26,1.13.27,1,.35,1.51c.22,1.51.92,3-.55,4.53-.57.58-.6,1.14.22,1.71.38.27.1.58-.16.86a3.61,3.61,0,0,1-1.46.29c-1.8.09-2,.32-2.06.59a1.31,1.31,0,0,1-.48.74c-2-.4-2-.87-2-1.35,0-.23.12-.47,0-.7s-.53-.18-.81-.27a5.72,5.72,0,0,0-1.15.25,10.35,10.35,0,0,1-1.39,1.48c-.3-.19-.95-.38-.86-.57a6.61,6.61,0,0,1,1.24-1.34c.23-.23.57-.46.76-.69s-.24-.59-1.69-.8c-.45-.07-.7-.23-.68-.35.09-.84.28-1.68.42-2.52.19-1.06.35-2.12-1.65-3.15-.43-.22-.14-.49-.07-.73s.55-.63.46-.95a18.76,18.76,0,0,1,.08-9.81c.38-1.59,1.54-3.18,2.41-4.78.11-.21.15-.36-1.16-.48-1.59-.15-1.49-.47-1.44-.75s-.1-.49,1.71-.55a1.81,1.81,0,0,0,.75-.18c.56-.4,1-.8,1.55-1.19.06-.06.19-.13.06-.16-1.16-.29-.22-.5.38-.77.8-.37.84-.79,1.14-1.19.1-.13,0-.26,0-.39,3.26-.16,2.06-.77,3.49-1.1,1.82.57,2.93,1.17,2.71,1.84a9.23,9.23,0,0,0-.47,2.56,2.86,2.86,0,0,0,.67,1.4,5.06,5.06,0,0,0,1.14.32l3.82-3.26a2.21,2.21,0,0,1,.7-.38,6.37,6.37,0,0,1,3.37-.17l1-.84a2.5,2.5,0,0,1,.84-.65,13.53,13.53,0,0,1,1.77-.25c.58-.08,1.29-.15,1.69-.25a4,4,0,0,0,1-.43,6.36,6.36,0,0,0,3.2-.08l1.23.12,3.92-1.46c1.72.08,1.63.32,1.72.54s.18.42.31.71C224.5,7,223.21,6.49,223.68,6c.39.2.77.4,1.19.6,3.29,1.56,6.06,3.15,10.08,4.64,2.83,1,2.86,2.13,3.75,3.21a35.39,35.39,0,0,0,2.26,3.2c.59.6,1.25,1.18.85,1.8-.28.43.23.89.63,1.33a5.91,5.91,0,0,0,1.44.62h.6l.73-.77h.69c.25.34.52.67.74,1a8.19,8.19,0,0,1,.47.86c.19.39.36.79.55,1.21h-2.49c-.12.24-.47.48-.32.72.58.87,1.41,1.74,2,2.62a6.92,6.92,0,0,1,.71,1.83,23.33,23.33,0,0,1,.81,3.08c.13.87,1.07,1.74-.25,2.6-.12.08-.2.2,0,.26,1,.26.51.53.34.8s-.2.29-.17.43c.33,1.75.57,3.49,1.07,5.23.25.85,1.17,1.69,1.46,2.53a7.27,7.27,0,0,1,.16,2.41c0,.07-.18.17-.46.21-1.92.29-2,.68-2.05,1.1,0,.24-.91.48-1.4.72h-.84c-.25-.15-.77-.3-.69-.44.28-.48.81-1,1.16-1.43a.54.54,0,0,0,0-.55,8.44,8.44,0,0,1-.62-1.56c-.07-.52-.53-1-2.84-1.33a2.53,2.53,0,0,1-.95-.31c-.86-.56-1.6-1.12-1.27-1.72.15-.27-.39-.56-.64-.84-.07-.08-.29-.15-.31-.22-.69-2.43-1.87-4.86-1.88-7.29,0-1.79-1-3.57-1.54-5.36-.28-.88-.92-1.76.81-2.63l-.53,0c-.32-.09-.86-.18-.91-.28-.25-.42-.29-.85-.57-1.27-.08-.13-.68-.25-1-.37l-.6,0-4.64-8.14Z"/><path class="cls-1" d="M89.4,18.89l2.1.33a10.64,10.64,0,0,1,4.23-.17l.82-.51.46,0,1.77.77,1.78-.77,1.79.49,1.4-.43c4.06,1.28,9,2.4,10.9,3.79a7,7,0,0,0,3,1.35,2.51,2.51,0,0,1,1.65,1,3.15,3.15,0,0,0,1.57,1.49A4,4,0,0,1,123,28c2.44,4.11,2,8.23.69,12.35-.15.48-1,.95-1.18,1.42s.29.67.32,1-.24.38-.37.57h-.71l-.62-.87-.67,0c-.38.14-1,.27-1.08.41-.49,1.75-2.62,3.44-5.73,5.08a9.67,9.67,0,0,1-4.46,1,12.42,12.42,0,0,0-1.39.21,42.38,42.38,0,0,1-8.63.47.56.56,0,0,0-.18,0A18.08,18.08,0,0,1,93.25,49c-.59-.11-.63-.32-.9-.49l-1.57-1-2.72.53c-.69-.36-1.62-.65-1.79-1s.52-.59.87-.93c-3.46.23-3.47.23-5.13-.3-3.13-1-3.3-2.08-3.2-3.19a6.84,6.84,0,0,0-.61-3.28c-.58-1.35-1.73-2.7-.77-4.05a8.82,8.82,0,0,1,1.67-1.58,3.06,3.06,0,0,0,1.13-3.17c0-.59.76-1.21,1.92-1.76.66-.31,2.62-.54,2.89-.93a5.48,5.48,0,0,1,.74-.93,3.73,3.73,0,0,1,.79-.29c.57-.19,1.73-.39,1.62-.57-.32-.53,1.06-.91,2.63-1.28l1.37-.32c1-.23.77-.5-.53-.67a3.49,3.49,0,0,1-1.28-.31,3.77,3.77,0,0,1-.9-1.49,20.29,20.29,0,0,1-.28-2.79C89.19,19.17,89.3,19.07,89.4,18.89Zm8.29,26.23c3.44-.16,2.43-.79,4.42-1l1.42.16c.82-.19,1.5-.35,2.21-.5a10.65,10.65,0,0,0,1.52-.33c2.27-1.16,4.43-2.32,6.65-3.48.27-.14.67-.28,1-.41l1.58.43.85,0c.19-1.49.72-3-1.06-4.5,2.32.06,2.33-.15,2.12-.37a3.09,3.09,0,0,0-.5-.33c-.76-.52-2-1-2.22-1.58-1-2.06-1.71-4.13-2.54-6.2,0,0-.09-.05-.15-.09l-.77.21-.53-.21a2,2,0,0,0-.6-.19c-2.11-.23-2-.21-1-.63.63-.26,1.12-.57,1-.85s-.8-.79-1.3-1.18a3.42,3.42,0,0,0-.73-.29c-2.22.42.22,1.08-2.75,1.44a9.12,9.12,0,0,1-1.13-.56,1.1,1.1,0,0,1-.37-.59,3.05,3.05,0,0,1-.08-.5h-.61a4.17,4.17,0,0,0-.38.28c-.59.68-.73,1.39-4.52,1.81a1.38,1.38,0,0,0-.76.26c-.2.19-.38.39-.35.59.08.5.46,1,.33,1.48-.06.25-.81.51-1.6.72-.31.08-1.59,0-2.39.07a7.1,7.1,0,0,0-1.44.16A3.3,3.3,0,0,0,92,29.5a2.52,2.52,0,0,0-.43.79l-2.08-.24A4,4,0,0,1,90,31.2c0,.2,0,.48-.71.59-.87.16-1.22.29-1.15.49.35,1,.68,1.95,1.06,2.92.16.4-.06.45-2.27.41-.19.25-1.71.53,0,.75,1,.13,1.06.26,1,.44,0,.39-.31.8.1,1.17a20.82,20.82,0,0,0,2.66,1.72l-.52,0L91.49,39h.6c.21.13.56.26.6.39a4.93,4.93,0,0,1,.3,1.91c-.13.74.32,1.45,1.5,2.15a6,6,0,0,0,.89.32,7,7,0,0,1,1,.42C96.87,44.52,97.25,44.82,97.69,45.12Z"/></g></g></svg>