<svg xmlns="http://www.w3.org/2000/svg" viewBox="0 0 376.5 146.08"><defs><style>.cls-1{fill:#00c73c;}.cls-2{fill:#fff;}.cls-3{fill:#231916;}</style></defs><g id="Layer_2" data-name="Layer 2"><g id="Layer_1-2" data-name="Layer 1"><rect class="cls-1" width="146.08" height="146.08"/><polygon class="cls-2" points="109.31 40.78 85.61 40.78 85.61 75.58 61.47 40.78 37.31 40.78 37.31 108.39 61.82 108.39 61.82 73.95 85.71 108.39 109.31 108.39 109.31 40.78"/><rect class="cls-3" x="263.8" y="23.65" width="10.95" height="99.83"/><polygon class="cls-3" points="351.78 87.07 300.49 87.07 300.49 95.65 351.78 95.65 351.78 124.12 362.02 124.12 362.02 95.65 362.02 87.07 351.78 87.07"/><path class="cls-3" d="M244.8,26.67V46.5H232.38a21.29,21.29,0,0,0-41.78,5.79V78.14a21.3,21.3,0,0,0,41.6,6.47h12.6v34.32h11V26.67ZM223.2,78.15a11.3,11.3,0,1,1-22.6,0V52.29a11.3,11.3,0,1,1,22.6,0Zm10-2.16V54.83h11.6V76Z"/><path class="cls-3" d="M310.78,26.61a25.15,25.15,0,1,0,25.15,25.15A25.15,25.15,0,0,0,310.78,26.61Zm0,40.3a15.15,15.15,0,1,1,15.15-15.15A15.17,15.17,0,0,1,310.78,66.91Z"/><polygon class="cls-3" points="376.5 46.63 376.5 37.31 362.74 37.31 362.74 23.24 351.78 23.24 351.78 81.86 362.74 81.86 362.74 67.63 376.5 67.63 376.5 58.31 362.74 58.31 362.74 46.63 376.5 46.63"/></g></g></svg>