<svg xmlns="http://www.w3.org/2000/svg" viewBox="0 0 126.59 126.2"><defs><style>.cls-1{fill:#fff;}</style></defs><g id="Layer_2" data-name="Layer 2"><g id="Layer_1-2" data-name="Layer 1"><path class="cls-1" d="M121,37.45A175.88,175.88,0,0,0,72.48,2.13C65.39-1.32,58.75-.23,52,2.91A158.16,158.16,0,0,0,11,30.65C7.15,34.23,3.24,37.93,1.4,43.14c-.92,3.73-2,7.44-1,11.33C2.81,75.69,10.27,95.22,20.18,114c2.89,5.46,7.39,8.22,13.23,9.38a154.32,154.32,0,0,0,59.92-.16,16.66,16.66,0,0,0,12.33-9,218.36,218.36,0,0,0,19.57-53C127.2,52.81,128,44.54,121,37.45ZM114,53.75c-3.24,3.32-7.57,4.71-11.67,6.41-4.74,2-9.67,3.49-14.1,6.14-5.72,3.42-6.7,6.67-4,12.87,2.23,5,5.54,9.43,8.45,14,2,3.24,4,6.51,4.63,10.35.45,2.81-.27,5.28-2.78,7s-4.75.49-6.85-1c-4.28-3-7.1-7.41-10.45-11.3-3-3.51-5.68-7.38-9.39-10.29-3.18-2.49-6.28-2.58-9.53-.15C54,91.13,50.66,95.54,47.09,99.7c-2.81,3.28-5.5,6.67-9,9.26-2.26,1.67-4.7,2.82-7.29.88-2.42-1.81-2.64-4.48-1.95-7.19A43.19,43.19,0,0,1,34,91.4c2.56-4.26,5.25-8.46,7.55-12.86,3.25-6.2,2.56-8.39-3.67-11.41C32.1,64.31,26.08,62,20.23,59.24a25,25,0,0,1-8.17-5.6,6.43,6.43,0,0,1-1.3-7c.89-2.4,3.08-3.26,5.62-3.34,5.25-.17,10.11,1.58,15.08,2.89,3.65,1,7.31,1.89,11,2.6,7.08,1.37,10.34-1,11-8.32.52-5.95.71-11.94,1-17.91a24.15,24.15,0,0,1,1.93-8.68,7,7,0,0,1,7-4.62,7.12,7.12,0,0,1,7.06,4.52A29.79,29.79,0,0,1,72.59,25c.17,5.64.42,11.29,1,16.91.28,2.88.53,6.19,4.56,6.7,1.87-.28,3.75.72,5.61-.06,7.68-.35,14.74-3.74,22.34-4.56a14.89,14.89,0,0,1,4.94-.11c2.42.54,4.37,1.6,5.13,4.14S115.6,52.15,114,53.75Z"/></g></g></svg>