<svg xmlns="http://www.w3.org/2000/svg" viewBox="0 0 18.05 18"><defs><style>.cls-1{fill:#e82d6a;}</style></defs><g id="Layer_2" data-name="Layer 2"><g id="Layer_1-2" data-name="Layer 1"><path class="cls-1" d="M17.25,5.34a25.21,25.21,0,0,0-6.91-5A3.23,3.23,0,0,0,7.42.41a22.6,22.6,0,0,0-5.85,4A4.61,4.61,0,0,0,.2,6.15,3.42,3.42,0,0,0,.05,7.77a23.87,23.87,0,0,0,2.83,8.48,2.54,2.54,0,0,0,1.88,1.34,22,22,0,0,0,8.55,0,2.36,2.36,0,0,0,1.76-1.28,31.3,31.3,0,0,0,2.79-7.55A3.3,3.3,0,0,0,17.25,5.34Zm-1,2.32a4.53,4.53,0,0,1-1.66.92,15.63,15.63,0,0,0-2,.87A1.21,1.21,0,0,0,12,11.29a15.64,15.64,0,0,0,1.21,2,4,4,0,0,1,.66,1.48.93.93,0,0,1-.4,1c-.37.25-.68.07-1-.14A9.1,9.1,0,0,1,11,14a10.34,10.34,0,0,0-1.34-1.47,1,1,0,0,0-1.35,0,10,10,0,0,0-1.61,1.7,9,9,0,0,1-1.29,1.32c-.32.23-.67.4-1,.12a.89.89,0,0,1-.28-1A6.35,6.35,0,0,1,4.85,13c.37-.6.75-1.2,1.08-1.83.46-.88.36-1.2-.52-1.63S3.72,8.83,2.89,8.45a3.59,3.59,0,0,1-1.17-.8.94.94,0,0,1-.19-1,.79.79,0,0,1,.81-.48,7.58,7.58,0,0,1,2.15.41c.52.14,1,.27,1.57.37,1,.2,1.47-.15,1.56-1.18.08-.85.1-1.71.14-2.56A3.34,3.34,0,0,1,8,2a1,1,0,0,1,1-.65A1,1,0,0,1,10,2a4.29,4.29,0,0,1,.31,1.59c0,.81.06,1.61.14,2.41,0,.41.07.88.65,1,.26,0,.53.1.8,0,1.09,0,2.1-.54,3.18-.65a2.12,2.12,0,0,1,.71,0,.88.88,0,0,1,.73.59A.8.8,0,0,1,16.26,7.66Z"/></g></g></svg>