<svg xmlns="http://www.w3.org/2000/svg" viewBox="0 0 55.84 55.66"><defs><style>.cls-1{fill:#fff;opacity:0.1;}</style></defs><g id="Layer_2" data-name="Layer 2"><g id="Layer_1-2" data-name="Layer 1"><path class="cls-1" d="M53.36,16.52A77.3,77.3,0,0,0,32,.94c-3.13-1.52-6-1-9,.34A69.87,69.87,0,0,0,4.86,13.52C3.15,15.1,1.43,16.73.62,19a10.11,10.11,0,0,0-.45,5C1.24,33.39,4.53,42,8.9,50.27a7.88,7.88,0,0,0,5.84,4.14,68.14,68.14,0,0,0,26.43-.08,7.35,7.35,0,0,0,5.44-4A96.39,96.39,0,0,0,55.24,27C56.11,23.29,56.44,19.65,53.36,16.52ZM50.3,23.71c-1.43,1.46-3.34,2.07-5.15,2.83a46.25,46.25,0,0,0-6.21,2.7c-2.53,1.51-3,2.95-1.75,5.68a48.76,48.76,0,0,0,3.73,6.2,12.47,12.47,0,0,1,2,4.57,2.88,2.88,0,0,1-1.23,3.07c-1.14.76-2.1.22-3-.44-1.89-1.33-3.13-3.27-4.61-5A31.25,31.25,0,0,0,30,38.8a3.12,3.12,0,0,0-4.2-.07,33,33,0,0,0-5,5.24,24.79,24.79,0,0,1-4,4.09c-1,.74-2.08,1.24-3.22.39a2.79,2.79,0,0,1-.86-3.17,18.94,18.94,0,0,1,2.29-5c1.13-1.88,2.31-3.74,3.33-5.68,1.43-2.73,1.13-3.7-1.62-5-2.56-1.24-5.21-2.28-7.8-3.48a11.07,11.07,0,0,1-3.6-2.47,2.85,2.85,0,0,1-.58-3.07,2.45,2.45,0,0,1,2.48-1.47c2.32-.08,4.47.69,6.66,1.27,1.6.42,3.22.84,4.85,1.15,3.13.6,4.57-.46,4.85-3.67.23-2.63.31-5.27.43-7.9a10.27,10.27,0,0,1,.85-3.83,3.06,3.06,0,0,1,3.07-2A3.14,3.14,0,0,1,31,6.1,13,13,0,0,1,32,11c.08,2.49.18,5,.42,7.46.12,1.27.23,2.73,2,3,.82-.13,1.65.32,2.47,0,3.39-.15,6.51-1.65,9.86-2A6.38,6.38,0,0,1,49,19.34a2.69,2.69,0,0,1,2.26,1.83A2.49,2.49,0,0,1,50.3,23.71Z"/></g></g></svg>