<?xml version="1.0" encoding="utf-8"?>
<!-- Generator: Adobe Illustrator 25.2.3, SVG Export Plug-In . SVG Version: 6.00 Build 0)  -->
<svg version="1.1" id="Layer_1" xmlns="http://www.w3.org/2000/svg" xmlns:xlink="http://www.w3.org/1999/xlink" x="0px" y="0px"
	 viewBox="0 0 50 50" style="enable-background:new 0 0 50 50;" xml:space="preserve">
<style type="text/css">
	.st0{fill:#E82D6A;}
</style>
<path class="st0" d="M27,50h-4c-1.1,0-2-0.9-2-2V2c0-1.1,0.9-2,2-2h4c1.1,0,2,0.9,2,2v46C29,49.1,28.1,50,27,50z"/>
<path class="st0" d="M0,27v-4c0-1.1,0.9-2,2-2h46c1.1,0,2,0.9,2,2v4c0,1.1-0.9,2-2,2H2C0.9,29,0,28.1,0,27z"/>
</svg>
