<svg xmlns="http://www.w3.org/2000/svg" viewBox="0 0 67.64 71.12"><defs><style>.cls-1{fill:#fbc64f;}</style></defs><g id="Layer_2" data-name="Layer 2"><g id="Layer_1-2" data-name="Layer 1"><path class="cls-1" d="M39.6,13.51,33.82,0,28,13.51a22.94,22.94,0,0,1,11.56,0Z"/><path class="cls-1" d="M25.54,14.33,12.92,6.79l3.27,14.35A22.88,22.88,0,0,1,25.54,14.33Z"/><path class="cls-1" d="M0,24.57l11.07,9.68a22.71,22.71,0,0,1,3.58-11Z"/><path class="cls-1" d="M0,46.55l14.66,1.32a22.61,22.61,0,0,1-3.59-11Z"/><path class="cls-1" d="M16.19,50,12.92,64.33l12.62-7.54A22.88,22.88,0,0,1,16.19,50Z"/><path class="cls-1" d="M28,57.6l5.78,13.52L39.6,57.6A22.65,22.65,0,0,1,28,57.6Z"/><path class="cls-1" d="M42.09,56.79l12.63,7.54L51.45,50A22.85,22.85,0,0,1,42.09,56.79Z"/><path class="cls-1" d="M67.64,46.55,56.57,36.87a22.61,22.61,0,0,1-3.59,11Z"/><path class="cls-1" d="M67.64,24.57,53,23.25a22.61,22.61,0,0,1,3.59,11Z"/><path class="cls-1" d="M51.45,21.14,54.72,6.79,42.09,14.33A22.85,22.85,0,0,1,51.45,21.14Z"/><path class="cls-1" d="M33.82,15.77A19.79,19.79,0,1,0,53.61,35.56,19.82,19.82,0,0,0,33.82,15.77Z"/></g></g></svg>