<?xml version="1.0" encoding="utf-8"?>
<!-- Generator: Adobe Illustrator 25.2.3, SVG Export Plug-In . SVG Version: 6.00 Build 0)  -->
<svg version="1.1" id="Layer_1" xmlns="http://www.w3.org/2000/svg" xmlns:xlink="http://www.w3.org/1999/xlink" x="0px" y="0px"
	 viewBox="0 0 557 240" style="enable-background:new 0 0 557 240;" xml:space="preserve">
<style type="text/css">
	.st0{fill:#F5C24F;}
	.st1{fill:none;stroke:#FFFFFF;stroke-width:5;stroke-miterlimit:10;}
</style>
<g id="Layer_2_1_">
	<g id="Layer_1-2">
		<path class="st0" d="M556.2,200c-3,0.1-5.5-2.2-5.6-5.1c-0.1-3,2.2-5.5,5.1-5.6c0.2,0,0.3,0,0.5,0c0.3,0,0.6,0,0.8,0.1v-8.1
			c-0.3,0.1-0.6,0.1-0.8,0.1c-3,0.1-5.5-2.2-5.6-5.1c-0.1-3,2.2-5.5,5.1-5.6c0.2,0,0.3,0,0.5,0c0.3,0,0.6,0,0.8,0.1v-8.1
			c-0.3,0-0.6,0.1-0.8,0.1c-3,0-5.4-2.4-5.4-5.4s2.4-5.4,5.4-5.4c0.3,0,0.6,0,0.8,0.1v-8.1c-0.3,0-0.6,0.1-0.8,0.1
			c-3,0-5.4-2.4-5.4-5.4s2.4-5.4,5.4-5.4c0.3,0,0.6,0,0.8,0.1v-8.1c-0.3,0-0.6,0.1-0.8,0.1c-3,0-5.4-2.4-5.4-5.4s2.4-5.4,5.4-5.4
			c0.3,0,0.6,0,0.8,0.1v-8.1c-0.3,0-0.6,0.1-0.8,0.1c-3,0-5.4-2.4-5.4-5.4s2.4-5.4,5.4-5.4c0.3,0,0.6,0,0.8,0.1V88
			c-0.3,0-0.6,0.1-0.8,0.1c-3,0-5.4-2.4-5.4-5.4s2.4-5.4,5.4-5.4c0.3,0,0.6,0,0.8,0.1v-8.1c-0.3,0.1-0.6,0.1-0.8,0.1
			c-3,0.1-5.5-2.2-5.6-5.1c-0.1-3,2.2-5.5,5.1-5.6c0.2,0,0.3,0,0.5,0c0.3,0,0.6,0,0.8,0.1v-8.1c-0.3,0.1-0.6,0.1-0.8,0.1
			c-3,0.1-5.5-2.2-5.6-5.1c-0.1-3,2.2-5.5,5.1-5.6c0.2,0,0.3,0,0.5,0c0.3,0,0.6,0,0.8,0.1v-6.5c-17.3-2.6-30.9-16.2-33.5-33.5H33.5
			C30.9,17.3,17.3,30.9,0,33.5v6.5C0.3,40,0.6,40,0.9,40c3-0.1,5.5,2.2,5.6,5.1c0.1,3-2.2,5.5-5.1,5.6c-0.2,0-0.3,0-0.5,0
			c-0.3,0-0.6,0-0.9-0.1v8.1c0.3-0.1,0.6-0.1,0.9-0.1c3,0,5.4,2.4,5.4,5.3c0,3-2.4,5.4-5.4,5.4c0,0,0,0,0,0c-0.3,0-0.6,0-0.9-0.1
			v8.1c0.3,0,0.6-0.1,0.9-0.1c2.9-0.3,5.5,1.9,5.8,4.9c0.3,2.9-1.9,5.5-4.9,5.8c-0.3,0-0.6,0-0.9,0c-0.3,0-0.6,0-0.9,0v8.1
			C0.3,96,0.6,96,0.9,96c3,0,5.4,2.4,5.4,5.4s-2.4,5.4-5.4,5.4c-0.3,0-0.6,0-0.9-0.1v8.1c0.3,0,0.6-0.1,0.9-0.1c3,0,5.4,2.4,5.4,5.4
			s-2.4,5.4-5.4,5.4c-0.3,0-0.6,0-0.9-0.1v8.1c0.3,0,0.6-0.1,0.9-0.1c2.9-0.3,5.5,1.9,5.8,4.9c0.3,2.9-1.9,5.5-4.9,5.8
			c-0.3,0-0.6,0-0.9,0c-0.3,0-0.6,0-0.9-0.1v8.1c0.3,0,0.6,0,0.9,0c3,0,5.4,2.4,5.4,5.4s-2.4,5.4-5.4,5.4c-0.3,0-0.6-0.1-0.9-0.1
			v8.1c0.3-0.1,0.6-0.1,0.9-0.1c3,0,5.4,2.4,5.4,5.4l0,0c0,3-2.4,5.4-5.4,5.4c-0.3,0-0.6,0-0.9-0.1v8.1c0.3-0.1,0.6-0.1,0.9-0.1
			c3,0,5.4,2.4,5.4,5.4S3.8,200,0.9,200c-0.3,0-0.6,0-0.9-0.1v6.5c17.3,2.6,30.9,16.2,33.5,33.6h489.9c2.6-17.3,16.2-30.9,33.5-33.6
			v-6.5C556.7,200,556.4,200,556.2,200z"/>
		<path class="st1" d="M54.5,29.5h448c11,0,20,9,20,20v140.9c0,11-9,20-20,20h-448c-11,0-20-9-20-20V49.5
			C34.5,38.5,43.5,29.5,54.5,29.5z"/>
	</g>
</g>
</svg>
