<svg xmlns="http://www.w3.org/2000/svg" viewBox="0 0 270.51 60.84"><defs><style>.cls-1{fill:#fff;fill-rule:evenodd;}</style></defs><g id="Layer_2" data-name="Layer 2"><g id="레이어_1" data-name="레이어 1"><path class="cls-1" d="M30.1,53.8A25.27,25.27,0,0,1,7.1,30c-.55,0-1.1.06-1.65.06H3.76A28.6,28.6,0,0,0,30.15,57.15c0-1.11-.08-2.24,0-3.35Z"/><path class="cls-1" d="M48.56,5.05A28.61,28.61,0,0,0,4.05,24.28,11.09,11.09,0,0,1,6,23.2c.61-.25,1.23-.46,1.85-.68A25.3,25.3,0,0,1,43.21,5.79a26,26,0,0,1,5.35-.74Z"/><path class="cls-1" d="M55.51,11.82A10,10,0,0,1,54.26,16,25.27,25.27,0,0,1,38.43,53.16c0,1.15,0,2.29,0,3.43A28.63,28.63,0,0,0,55.51,11.82Z"/><path class="cls-1" d="M0,28.28,51.16,6.21s2.75-.59,3.1-.23,0,3.81,0,3.81L32.2,60.84,32,28.75,0,28.28Z"/><path class="cls-1" d="M165,8.88c-1.14,0-7,.69-8.7.82v.82A3,3,0,0,1,159,13V50.87h8.37V10.24c-.06-1.07-1-1.42-2.37-1.36Z"/><path class="cls-1" d="M115.55,36.47h-7.09c5,5.63,1.22,12.59-5,12.86a7.26,7.26,0,0,1-5.56-12.18c4.51-4.82,10.72-3.83,12.92-3.83s5.6.17,6.79,0,.83-1.16.83-1.7V10.11c-.06-1.08-1-1.42-2.37-1.37-1.14,0-7,.7-8.7.83v.82a3,3,0,0,1,2.7,2.47v2h-9a19,19,0,0,0,.78-3.6c.1-1.12-.17-1.76-1-1.76H78.1l2.1,2.85h11c1.49,0,1.9,4.24-3.23,10.24C82.48,29,74,29.89,74,29.89l3.36,2.88c14.75-2.24,20.67-10.28,23-15.89l.45.59h9.25v5.46H98.52l2.31,2.65h9.25v5.09a1.05,1.05,0,0,1-1.18,1,44.81,44.81,0,0,0-7.84,0,20.19,20.19,0,0,0-11.17,3.7c-3.44,2.58-5.16,6.25-2.74,10.21,2.93,4.78,10.26,7.37,17.58,7,4-.21,8.29-1.12,11.06-3.43,7.87-6.58,2.64-12.72-.24-12.72Z"/><path class="cls-1" d="M151.46,9.7H128.6l2.1,3h11s1.59-.13,1.46,1.41-2.49,16.46-18.05,21.12l4.34,2.53s21.53-3,23-26.21c.08-1.19-.17-1.87-.95-1.87Z"/><path class="cls-1" d="M209.25,13.05V28.24h8.37V10.3c-.05-1.07-.94-1.41-2.36-1.36-1.15.05-7,.7-8.71.83v.82a3,3,0,0,1,2.7,2.46Z"/><path class="cls-1" d="M201.37,18.66c0-5.79-5.78-10.48-12.92-10.48s-12.93,4.69-12.93,10.48,5.79,10.48,12.93,10.48,12.92-4.69,12.92-10.48Zm-17.85,0h0c0-4.29,2.21-7.77,4.93-7.77s4.93,3.48,4.93,7.77-2.21,7.78-4.93,7.78-4.93-3.49-4.93-7.78Z"/><path class="cls-1" d="M190.35,46.14V41.39h27.1V31.18H181.29l2.38,2.68h25.4v4.51H181.6v8.35c0,2.17,3,3.63,8.1,3.66s28.09,0,28.09,0V47.46H191.71a1.26,1.26,0,0,1-1.36-1.32Z"/><path class="cls-1" d="M252.22,47.26V32.76h11.15c2.29,0,4.56-.46,4.56-4.18V10.64c-.06-1.07-.95-1.41-2.37-1.36-1.14.05-7.53.69-9.28.83v.82a3,3,0,0,1,2.7,2.46v3.75H239.37l2.3,2.81H259v8.63c0,.6.1,1.52-1.64,1.52H240.08c-1.52,0-1.88-.9-1.87-1.44V11.12c-.05-1.07-1-1.42-2.37-1.36-1.14,0-7.53.69-9.27.82v.82a3,3,0,0,1,2.7,2.46V29.05c0,1.75.42,3.71,3.3,3.71h10.81v14.5H225.12l2.37,2.81h43V47.26Z"/></g></g></svg>