<svg xmlns="http://www.w3.org/2000/svg" viewBox="0 0 289.44 58.18"><defs><style>.cls-1{fill:#003668;}.cls-2{fill:#e6002d;}.cls-3{fill:#fff;}</style></defs><g id="Layer_2" data-name="Layer 2"><g id="레이어_1" data-name="레이어 1"><path class="cls-1" d="M44.92,27.76A10.49,10.49,0,0,0,30,30.9,10.5,10.5,0,0,1,11,28h0a.45.45,0,0,0,0-.11l0-.13a13.54,13.54,0,0,1-.54-4.17c0-9.41,9.65-19.89,23.56-19.89,14.24,0,22.39,10.84,24.48,16.86,0-.1-.06-.21-.1-.32A30,30,0,0,0,0,30c0,14.8,10.67,27.47,25.48,27.47,11.81,0,19.75-6.62,23.39-15.75A11.56,11.56,0,0,0,44.92,27.76Z"/><path class="cls-2" d="M58.64,21.16C56.89,15.28,48.68,3.71,34,3.71c-13.91,0-23.56,10.48-23.56,19.89A13.54,13.54,0,0,0,11,27.77a8.86,8.86,0,0,1-.28-2.14C10.67,15.83,20.48,9,30.57,9A24.72,24.72,0,0,1,55.29,33.76,27.24,27.24,0,0,1,40.18,58.17h0A30,30,0,0,0,60,30,29.48,29.48,0,0,0,58.64,21.16Z"/><path class="cls-3" d="M101.81,30v3.3H90V38h-3.8V33.32h-12V30ZM76.44,27V15.43H99.59V27Zm3.74,8.48v5.82H100v3.29H76.44V35.44ZM95.89,18.62H80.11v5.25H95.89Z"/><path class="cls-3" d="M124.5,42.06H104.83V38.8h7.9V35.07a6,6,0,0,1-1-.34,8,8,0,0,1-2.35-1.44,6.88,6.88,0,0,1-1.58-2.18,6.06,6.06,0,0,1-.58-2.6,6,6,0,0,1,.58-2.59,6.76,6.76,0,0,1,1.58-2.15,7.32,7.32,0,0,1,2.33-1.47,7.71,7.71,0,0,1,2.85-.52,7.48,7.48,0,0,1,2.82.52,7.47,7.47,0,0,1,3.88,3.62,5.73,5.73,0,0,1,.6,2.59,5.8,5.8,0,0,1-.6,2.6,7.07,7.07,0,0,1-1.59,2.18,7.55,7.55,0,0,1-2.29,1.44,6.29,6.29,0,0,1-1.11.37v3.7h8.24Zm-12-24v-3.2h4v3.2h7.3v3.19H105.16V18.05Zm5.75,10.43a3.45,3.45,0,0,0-1.07-2.54,3.78,3.78,0,0,0-5.25,0,3.46,3.46,0,0,0-1.08,2.54A3.53,3.53,0,0,0,111.89,31a3.73,3.73,0,0,0,5.25,0A3.52,3.52,0,0,0,118.21,28.48Zm12.11,16.58h-3.7v-30h3.7v13h3.84v3.6h-3.84Z"/><path class="cls-3" d="M135.81,21.24V18.05h6.35v-3.2h3.93v3.2h6v3.19h-6.79l7.13,18.87-3.26,1.11-5-13.59-5,13.83-3.37-1.08,7.17-19.14Zm18.76-6.15H158v29.8h-3.47V30.39h-3.9V27h3.9Zm6.29,0h3.6v30h-3.6Z"/><path class="cls-3" d="M193.49,35.88v9.25h-3.74V39.07H169.64V35.88h4.78l0-3.5h-6.32V29.15h27.58v3.23h-6.36v3.5Zm-4.17-14.67a6.07,6.07,0,0,1-.61,2.66,8.09,8.09,0,0,1-1.58,2.22,8.25,8.25,0,0,1-2.35,1.46,7.43,7.43,0,0,1-2.86.55,7.57,7.57,0,0,1-2.88-.55,8.08,8.08,0,0,1-2.37-1.46,8.09,8.09,0,0,1-1.58-2.22,6.1,6.1,0,0,1,0-5.32,8.24,8.24,0,0,1,1.58-2.22,7.81,7.81,0,0,1,5.25-2,7.44,7.44,0,0,1,2.86.56,7.71,7.71,0,0,1,2.35,1.49,8.24,8.24,0,0,1,1.58,2.22A6.07,6.07,0,0,1,189.32,21.21ZM177.85,35.88h8.07v-3.5h-8Zm7.8-14.67a3.42,3.42,0,0,0-1.09-2.57,3.65,3.65,0,0,0-2.64-1.06,3.71,3.71,0,0,0-2.66,1.06,3.41,3.41,0,0,0-1.11,2.57,3.48,3.48,0,0,0,1.11,2.59,3.68,3.68,0,0,0,2.66,1.08,3.62,3.62,0,0,0,2.64-1.08A3.5,3.5,0,0,0,185.65,21.21Z"/><path class="cls-3" d="M217.47,29.42v3.26H199.54V29.42h6.06V22.89h3.53v6.53Zm-4.67-2.76V19H200.38V15.66h16.05v11Zm-8.18,8.41v6.09h20.76v3.29H200.89V35.07Zm19.95-1.35h-3.74V15.05h3.74v7.34h3.83V26h-3.83Z"/><path class="cls-3" d="M237,27.94V22.08h3.53v5.86h8.34v3.12H231V27.94Zm7.2-2.69V19H231.8v-3.3h16v9.59Zm9.08,13.85a6,6,0,0,1-.6,2.68,8.08,8.08,0,0,1-1.62,2.2,7.25,7.25,0,0,1-2.32,1.5,7.87,7.87,0,0,1-5.78,0,7.38,7.38,0,0,1-4-3.7,6.15,6.15,0,0,1-.59-2.68,6.34,6.34,0,0,1,.59-2.7,7.53,7.53,0,0,1,1.6-2.24A8,8,0,0,1,243,32.7a7.73,7.73,0,0,1,8.1,1.46,8,8,0,0,1,1.62,2.24A6.2,6.2,0,0,1,253.29,39.1Zm-3.67,0a3.56,3.56,0,0,0-1.1-2.64,3.82,3.82,0,0,0-5.34,0,3.55,3.55,0,0,0-1.12,2.64,3.45,3.45,0,0,0,1.12,2.61,3.89,3.89,0,0,0,5.34,0A3.47,3.47,0,0,0,249.62,39.07Zm6.36-7.5h-3.73V15.05H256v6.13h3.84v3.49H256Z"/><path class="cls-3" d="M261.86,34h27.58v3.3H277.5V45h-3.74V37.3h-11.9Zm5.88-14.66h15.78v-3.8h3.69V30H264.08V15.54h3.66Zm15.78,3.23H267.74v4.14h15.78Z"/></g></g></svg>