<svg xmlns="http://www.w3.org/2000/svg" viewBox="0 0 231.92 55.76"><defs><style>.cls-1{fill:#fff;}.cls-2{fill:#e43d30;}.cls-3{fill:#0099a8;}.cls-4{fill:#649b1d;}.cls-5{fill:#c9c9ca;}.cls-6{fill:#00304c;}</style></defs><g id="Layer_2" data-name="Layer 2"><g id="레이어_1" data-name="레이어 1"><path class="cls-1" d="M82.69,22.32a7.13,7.13,0,0,1-2.07,5.36,7.66,7.66,0,0,1-5.57,2,7.71,7.71,0,0,1-5.59-2,7.14,7.14,0,0,1-2.08-5.36A7.12,7.12,0,0,1,69.46,17a7.71,7.71,0,0,1,5.59-2,7.66,7.66,0,0,1,5.57,2,7.11,7.11,0,0,1,2.07,5.33m-4.31,0a4.4,4.4,0,0,0-.92-2.86,3.15,3.15,0,0,0-4.83,0,4.4,4.4,0,0,0-.92,2.86,4.45,4.45,0,0,0,.92,2.89,3.13,3.13,0,0,0,4.83,0,4.45,4.45,0,0,0,.92-2.89M91,41.15H74.05c-1.39,0-2.09-.66-2.09-2V31.9h4.48v5.54c0,.47.27.7.8.7H91Zm-.86-8H85.63V15.07h4.48Z"/><path class="cls-1" d="M110.64,28.5l-1.58,2.67a11.25,11.25,0,0,1-3.74-2,8.83,8.83,0,0,1-2.6-3,8.5,8.5,0,0,1-2.6,3.17,12.66,12.66,0,0,1-4.07,2.22l-1.64-2.75q5.9-2.3,5.9-7.57v-.63H95.06v-3h5.27V14.5h4.48v3.14h5.3v3h-5.25v.63a6.84,6.84,0,0,0,1.42,4.22,9.44,9.44,0,0,0,4.36,3m8.11,12.65h-17a2.27,2.27,0,0,1-1.6-.47,2.09,2.09,0,0,1-.49-1.54V32.27h4.48V37.4c0,.5.26.74.78.74h13.8Zm-.86-7.77h-4.47V25.3h-4.75V22.38h4.75V15.06h4.47Z"/><path class="cls-1" d="M148.43,25.27h-4v9.27H140V28.76a6.54,6.54,0,0,1-3.69,1.42,67.13,67.13,0,0,1-7.81.28h-6.25v-3H126V22h4.14v5.44q4.86,0,6.44-.17a6.71,6.71,0,0,0,2.45-.62,1.92,1.92,0,0,0,.94-1.82V15.06h4.48V22.3h4Zm-10.92-7.65-.58,7.65h-4V19.43c0-.68-.29-1-.86-1h-8.47v-3h11.83c1.45,0,2.12.73,2,2.19m8,23.9H128.17a1.8,1.8,0,0,1-2-2.05V32.9h4.47v4.93c0,.47.25.71.75.71h14.11Z"/><path class="cls-1" d="M176.22,23.68h-4v6.47h-4.47V27.71a6.91,6.91,0,0,1-3.7,1.42,72.46,72.46,0,0,1-7.81.25H150V26.52h3.78V21.64h4.14v4.88q4.86,0,6.45-.17a6.64,6.64,0,0,0,2.44-.62,1.93,1.93,0,0,0,1-1.82V15.06h4.47v5.68h4ZM165.27,17.5l-.53,7h-4V19.2c0-.68-.28-1-.85-1h-8.48V15.32h11.84c1.44,0,2.11.73,2,2.18m6.89,19a5.42,5.42,0,0,1-2.06,4.41,8.8,8.8,0,0,1-5.72,1.68,8.92,8.92,0,0,1-5.78-1.7,5.83,5.83,0,0,1,0-8.79,10.57,10.57,0,0,1,11.5,0,5.45,5.45,0,0,1,2.06,4.44m-4.36,0a2.72,2.72,0,0,0-.92-2.16,3.69,3.69,0,0,0-2.5-.79,3.77,3.77,0,0,0-2.52.79,3,3,0,0,0,0,4.29,3.82,3.82,0,0,0,2.52.79,3.74,3.74,0,0,0,2.5-.79,2.7,2.7,0,0,0,.92-2.13"/><path class="cls-1" d="M203.11,29.52h-25.4v-3h8.09V21.67h4.5v4.88h12.81Zm-3.19-12.33-.65,7.43H195V19.09q0-1-.87-1H181.21v-3h16.95c1.3,0,1.88.7,1.76,2.1m-1.54,19.39a5.25,5.25,0,0,1-2,4.4,9.67,9.67,0,0,1-6,1.61,9.54,9.54,0,0,1-5.9-1.6,5.23,5.23,0,0,1-2.1-4.41,5.25,5.25,0,0,1,2.1-4.39,11.57,11.57,0,0,1,11.81,0,5.24,5.24,0,0,1,2.09,4.39m-4.27,0a2.81,2.81,0,0,0-1-2.25,4.68,4.68,0,0,0-5.41,0,2.81,2.81,0,0,0-1,2.25,2.86,2.86,0,0,0,1,2.29,4.68,4.68,0,0,0,5.41,0,2.86,2.86,0,0,0,1-2.29"/><path class="cls-1" d="M222,32.41,219.89,35A12.9,12.9,0,0,1,216.08,32a12,12,0,0,1-2.69-4.07,10.31,10.31,0,0,1-2.39,4,15.81,15.81,0,0,1-4.08,3.42l-2.14-2.56A13.7,13.7,0,0,0,209.72,27,18.75,18.75,0,0,0,211,19.49V15.41h4.53v4.08q0,8.67,6.39,12.92m10-6.12h-4.31V41.57h-4.46V15.06h4.46v8.25h4.31Z"/><path class="cls-2" d="M48.79,21.33c0-.31.83-.12.83,0s0,1.09,0,1.63a13.12,13.12,0,0,0,.34,3,14.53,14.53,0,0,0,3.12-2.13c1.25-1.09,2-2,3-4.71,1.2-3.05.52-4,.37-6.18-.37-5.35-1.1-8.08-4.7-10.24C49.08,1.05,49,0,42.48,0c-5.15,0-9.32,1.66-10.61,5.53-.93,2.77-2.6,4.41-2.49,7.3a6.4,6.4,0,0,0,1.55.54c.5.09,1.45.54,1.53,1.25s-1.45,1-2.16,1a1.15,1.15,0,0,0-.63.19c.12,1,.23,1.86.26,2.53.14,3.13,2.28,4.71,3,5.82a7.59,7.59,0,0,0,4.78,2.58,62.84,62.84,0,0,0,6.84.37,10.38,10.38,0,0,0,3.79-.49c.26-1.13.48-2.08.48-2.29ZM44,22.11a39.73,39.73,0,0,1-4.32-.24,4.71,4.71,0,0,1-3-1.62c-.44-.7-1.79-1.7-1.88-3.67,0-.82-.26-2.14-.35-3.37-.12-1.9,1-2.93,1.58-4.71C36.83,6.05,39.46,5,42.7,5c4.14,0,4.16.66,5.88,1.68,2.27,1.37,2.73,3.09,3,6.46.09,1.35.53,2-.23,3.9a6.35,6.35,0,0,1-1.92,3A7.48,7.48,0,0,1,44,22.11"/><path class="cls-3" d="M6,9.66c1.86-.29,4.76.86,5.11.72s1.29-1.54,2.25-3.56a3.41,3.41,0,0,1,2-1.48c.62-.29,1.26-.81,1.89-.76a12.35,12.35,0,0,1,4.35.93c2.05,1,4.35,2,5.32,2.62a7.29,7.29,0,0,0-.4-1.61c-.38-1,.19-2.19-.75-3.14C21.56-.86,14.12.89,8.77.89,5.9.89,1.93,2.41,2.07,4.17S-.07,8.4,0,11c.07,2.3.11,4.28.18,6a5.26,5.26,0,0,1,1.39-2.73C3,12.84,4.84,9.83,6,9.66"/><path class="cls-3" d="M24.4,15.68c-.63.1-2.29-.11-2.67-.94s.6-1.35,1.21-1.43a8.06,8.06,0,0,0,2-.91,4.68,4.68,0,0,1,2.12-.28c0-1.16,0-2.17-.11-3.06a4.62,4.62,0,0,1-2.72.39c-1.42-.11-3.59-.79-4.76-.68-1.47.15-2.93.65-3.48,1.79-.36.77-1.27,1.65-1.67,2.4-.89,1.66-2.23,1.46-4.15.81-1.51-.44-3,.36-4.42.91s-2.73,2.67-3.55,3.64A3.81,3.81,0,0,1,.38,19.7c0,.43.1.84.16,1.22.41,2.42-.2,3.37.69,4.42,1.19,1.41,4.15,1.35,6.85,1.6,3.08.28,6.61-.13,10.63-.33,2.2-.1,4.14.58,5.08.11s2.35-1,2.81-2.38A24.07,24.07,0,0,0,27,18.19c0-.68,0-1.32,0-1.94a11.19,11.19,0,0,0-2.64-.57m-8.53,7.39a8.73,8.73,0,0,0-2,.28,4.4,4.4,0,0,1-2.13-.27c-.5-.24-.86-.11-1.52-.22s-1.07-.63-1-1,.5-.55.94-.65a2.57,2.57,0,0,0,1.34-.56,2.94,2.94,0,0,1,1.65-.6c1.47,0,2.35.89,2.92,1s2.74.31,2.77,1c0,1.05-2.56,1-3,1"/><path class="cls-4" d="M19.78,51.17a22.45,22.45,0,0,1-4.57-.2c-1.78-.37-3.82-1.41-5-1.63a24.27,24.27,0,0,0-2.91-.22,11.25,11.25,0,0,0-4.17.11,11.69,11.69,0,0,0-2.52,1,6.89,6.89,0,0,1,.51,1.87,4,4,0,0,0,3.24,3.35c1.83.47,3.7-.16,6.27-.11,4.14.08,6.62.11,10.73.11,2.33,0,3.75-1.76,4.54-3.24a11.9,11.9,0,0,0,.62-2.88,5.78,5.78,0,0,1,.12-.57,24.83,24.83,0,0,0-2.53,1.41,7.09,7.09,0,0,1-4.33,1"/><path class="cls-4" d="M6.54,45.71a11.82,11.82,0,0,1,3.75.59,10.5,10.5,0,0,1,1.71.39c.7.25,1.32.49,2,.67a16.59,16.59,0,0,0,6.48,1,6.37,6.37,0,0,0,3.64-1.57c1-.78,2.09-1,2.94-2.17h0c-.14-2.85-.36-5.77-.48-9.84s-1.67-4.17-5.32-4.17c-1.45,0-3.95-1.56-6.81-1.41-4.43.23-7.43.2-9.59.61a5.66,5.66,0,0,0-3,1.63A2.93,2.93,0,0,0,.57,33.8c-.1,1.89,0,5.21-.21,7.67-.17,2-.23,3.92-.23,5.62.64-.28,1.48-.63,2.44-1a12.78,12.78,0,0,1,4-.42m-3-2.91c.17-1.06,1.57-2.74,2.05-3.43a12.11,12.11,0,0,1,1.58-2.11,7,7,0,0,1,2.25-.93,2.12,2.12,0,0,1,1.54.28c.38.27.89,1.12,1.13,1.26a3.42,3.42,0,0,1,1,1.06c.37.58.53.54.7,1.22s.25.6.59,1.59a7.89,7.89,0,0,0,.34,1.3,2.66,2.66,0,0,1,.08,1.71c-.1.52-2,.39-2.55.21s-1.79-.75-2.09-.78S8.6,43.94,8,43.8a21.79,21.79,0,0,0-2.57-.08,8.42,8.42,0,0,0-1.68.17,1.4,1.4,0,0,1-.17-1.09"/><path class="cls-5" d="M49.16,27.13s-.1,1-.21,2.09l.77,0c-.28-1.06-.56-2.05-.56-2.05"/><path class="cls-6" d="M50.25,31.43c-.08-.5-.3-1.4-.53-2.25l-.77,0c-.09.83-.2,1.65-.27,2a6.82,6.82,0,0,0-.21,1.91,4.09,4.09,0,0,1,0,.63l2.14-.81c-.1-.39-.23-.92-.32-1.49"/><path class="cls-6" d="M45.45,34.85,47,34.29a20.79,20.79,0,0,0,.5-3.29,14.74,14.74,0,0,1,.26-1.71c-1.11.06-2.29.12-3.36.12-1.93,0-3.59.22-5.31.16a31.82,31.82,0,0,0-6.44.18c-1.56.34-1.13,1-1.56,1.73a12.07,12.07,0,0,0-1.12,3.14,32.88,32.88,0,0,0-.13,5.61c.81-.3,6.41-2.36,8.47-3,1.07-.35,4-1.22,7.18-2.35"/><path class="cls-6" d="M49.7,42.7c.22.28.81.92.81.92l.53-1s.3-4.29.29-5.09a3.37,3.37,0,0,1,.06-1l-2.27-.45-.61.18c.13.78.46,2.84.68,3.66.28,1,.29,2.46.51,2.74"/><path class="cls-6" d="M35.76,42.83c.94.05,2.05,0,3.26.14.41.06,1.57.63,2,.78l3.38,1.17a40.7,40.7,0,0,0,4.49,1.72,34.46,34.46,0,0,0,4,.5,18.1,18.1,0,0,0,3.43-.23,25.76,25.76,0,0,1-.34-3.5c.06-3.71.31-7.23,0-9.34a21.4,21.4,0,0,0-2.54.73l-.95.31.11.5s.21,2.11.19,3,.16.71.1,1.65A25.72,25.72,0,0,0,53,43l1.94,1.13a2.1,2.1,0,0,1-.14.89c-.19.42-2.72.6-2.72.6a19.58,19.58,0,0,1-3.22-.6c-1.07-.38-2.91-1.31-2.91-1.31a1.55,1.55,0,0,1,0-.7c.09-.37,1.61-.89,1.61-.89a11.69,11.69,0,0,1-.4-2.61A23.32,23.32,0,0,0,47,36.73c-1.64.46-3.07.86-3.66,1-1.43.37-2.57.45-5,1.09-2,.54-4.22,1.13-5.25,1.45-1.86.57-3,.82-3.3.89,0,.13,0,.26,0,.38,0,.89,0,1.53,0,2.09a15.49,15.49,0,0,1,2.54-.81,14.6,14.6,0,0,1,3.44,0"/><path class="cls-6" d="M51.56,50.44c-1.6-.26-2.71-.63-4.06-.92-1.8-.39-3.08-1.41-4.55-1.91-1.7-.57-3.27-1.62-4.36-1.78a13,13,0,0,0-2.28.13A25.77,25.77,0,0,0,32.5,46a9.78,9.78,0,0,0-2.76.83c0,.2,0,.4,0,.62.08,1.84.8,4.16,2,5.12.6.48,2.55,2.46,3.36,2.77,2,.75,3.51.22,6.21.19a54.1,54.1,0,0,0,8.55-.46c1.34-.21,3.4.16,4.26-.66A8.57,8.57,0,0,0,56.34,50a.13.13,0,0,1,0-.06h-.1c-1.43,0-3.3.77-4.69.54"/><path class="cls-6" d="M51.86,32.45c.48-.17.89-.31,1.21-.39,1-.25,1.7-.46,2.23-.62a2.48,2.48,0,0,0-1.37-1.23,5.77,5.77,0,0,0-2.63-1.07h-.47c.19.64.39,1.29.6,1.89.14.4.28.9.43,1.42"/></g></g></svg>