<svg xmlns="http://www.w3.org/2000/svg" viewBox="0 0 252.62 55.45"><defs><style>.cls-1{fill:#005cb9;}.cls-2{fill:#00afaa;}.cls-3{fill:#fff;}</style></defs><g id="Layer_2" data-name="Layer 2"><g id="레이어_1" data-name="레이어 1"><path class="cls-1" d="M24.83,41.15a25.86,25.86,0,0,0,26.76.69A27.72,27.72,0,1,1,32.44.41a13.42,13.42,0,0,1,8.56,6,22.06,22.06,0,0,1,2.53,6.26l0,.06a22.54,22.54,0,0,1-.09,9.87c-1.19,5.19-4.11,10-7.92,12.64l0,0a10.84,10.84,0,0,0-5.37-18.07,10.83,10.83,0,0,0-13,8.13,11.6,11.6,0,0,0-.12,4.93A17.36,17.36,0,0,0,24.83,41.15Z"/><path class="cls-2" d="M22.47,37.23a22.19,22.19,0,0,0,5.48,2,22.77,22.77,0,0,0,18.79-4l0,0a23,23,0,0,0,6-6.23,23.5,23.5,0,0,0,2.48-5c.76,6.91-.7,10.82-.7,10.82a22.49,22.49,0,0,1-22.46,7.43S26.26,41,22.47,37.23Z"/><path class="cls-2" d="M29.27,38.44c10.62.86,20.6-6.85,23.06-16.55a29.62,29.62,0,0,0,.77-5.32A28.17,28.17,0,0,0,44.87,5.92,22.74,22.74,0,0,1,31.28,38a16.08,16.08,0,0,1-2,.47Z"/><polygon class="cls-3" points="101.23 11.38 101.23 31.37 96.66 31.37 96.66 11.38 101.23 11.38 101.23 11.38"/><polygon class="cls-3" points="252.62 11.37 252.62 44.9 248.04 44.9 248.04 11.37 252.62 11.37 252.62 11.37"/><polygon class="cls-3" points="133.52 11.37 133.52 17.77 126.84 17.77 126.84 21.68 133.52 21.68 133.52 31.37 138.1 31.37 138.1 11.37 133.52 11.37 133.52 11.37"/><polygon class="cls-3" points="126.61 29.51 119.1 16.76 125.44 16.76 125.44 12.85 118.52 12.85 118.52 10.22 113.94 10.22 113.94 12.85 107.06 12.85 107.06 16.76 113.35 16.76 105.84 29.51 110.78 29.51 116.22 20.28 121.66 29.51 126.61 29.51 126.61 29.51"/><polygon class="cls-3" points="246.14 35.15 234.47 12.48 234.43 12.48 229.39 12.48 229.35 12.48 217.68 35.15 222.75 35.15 231.91 17.36 241.07 35.15 246.14 35.15 246.14 35.15"/><polygon class="cls-3" points="184.4 32.38 184.4 36.29 210.2 36.29 210.2 44.81 214.78 44.81 214.77 32.39 184.4 32.38 184.4 32.38"/><polygon class="cls-3" points="76.67 33.07 72.09 33.07 72.09 44.07 101.45 44.07 101.45 40.16 76.67 40.16 76.67 33.07 76.67 33.07"/><polygon class="cls-3" points="137.91 40.16 112.68 40.16 112.68 33.07 108.1 33.07 108.1 44.07 137.91 44.07 137.91 40.16 137.91 40.16"/><polygon class="cls-3" points="203.03 11.59 203.03 15.51 210.2 15.51 210.2 21.88 203.03 21.88 203.03 25.79 210.2 25.79 210.2 30.53 214.78 30.53 214.78 11.59 203.03 11.59 203.03 11.59"/><polygon class="cls-3" points="170.77 11.6 170.78 30.34 175.36 30.34 175.36 15.51 178.58 15.51 178.58 11.59 170.77 11.6 170.77 11.6"/><polygon class="cls-3" points="143.66 15.86 161.28 15.86 161.28 24.55 153.93 24.55 153.93 18.88 149.35 18.88 149.35 24.55 142.85 24.55 142.85 28.45 165.86 28.44 165.86 11.95 143.66 11.95 143.66 15.86 143.66 15.86"/><path class="cls-3" d="M78.89,11.44A9.55,9.55,0,1,0,88.44,21,9.55,9.55,0,0,0,78.89,11.44Zm0,14.88A5.33,5.33,0,1,1,84.23,21,5.33,5.33,0,0,1,78.89,26.32Z"/><path class="cls-3" d="M191.5,11A9.55,9.55,0,1,0,201,20.5,9.55,9.55,0,0,0,191.5,11Zm0,14.88a5.34,5.34,0,1,1,5.33-5.33A5.33,5.33,0,0,1,191.5,25.84Z"/><path class="cls-3" d="M167.49,26A9.55,9.55,0,1,0,177,35.59,9.54,9.54,0,0,0,167.49,26Zm0,14.88a5.34,5.34,0,1,1,5.34-5.33A5.33,5.33,0,0,1,167.49,40.92Z"/></g></g></svg>